<svg xmlns="http://www.w3.org/2000/svg" viewBox="0 0 500 500"><g id="freepik--background-complete--inject-5"><rect x="60.61" y="295" width="48.65" height="12.87" style="fill:#ebebeb"></rect><path d="M88.69,321.43a1.35,1.35,0,0,1,0-.24l0-.66c0-.6,0-1.45,0-2.53,0-2.22-.05-5.42-.09-9.44l.16.15L40,308.8l.24-.24h0v6.52q0,3.22,0,6.33l-.24-.24,34.67.11,10.24.06,2.77,0h.72l.26,0h-.23l-.69,0-2.72,0-10.18.07L40,321.67h-.24V315.1c0-1.08,0-2.16,0-3.25v-3.27h0c.5-.5.14-.14.26-.25l48.65.1h.15v.15c0,4.06-.07,7.29-.09,9.53,0,1.07,0,1.9,0,2.5,0,.26,0,.47,0,.63A1.66,1.66,0,0,1,88.69,321.43Z" style="fill:#e0e0e0"></path><rect x="245.92" y="25.52" width="48.65" height="12.87" style="fill:#ebebeb"></rect><path d="M274,52a1.35,1.35,0,0,1,0-.24v-.66c0-.6,0-1.45,0-2.53,0-2.22-.05-5.41-.08-9.44l.15.15-48.65.1c.11-.11-.25.24.24-.25h0V52l-.25-.24,34.67.11,10.24.07,2.77,0h.72l.26,0h-.23l-.69,0-2.72,0-10.18.07-34.84.11h-.24V39.1h0c.49-.5.13-.14.25-.25l48.65.1h.15v.15c0,4.06-.07,7.29-.09,9.53,0,1.07,0,1.9,0,2.5,0,.26,0,.47,0,.63A1.66,1.66,0,0,1,274,52Z" style="fill:#e0e0e0"></path><path d="M305.42,327.67a2.07,2.07,0,0,1,0-.23l0-.66c0-.6,0-1.45,0-2.53,0-2.22,0-5.42-.08-9.45l.15.15-48.65.1.25-.25h0v3.29c0,1.09,0,2.17,0,3.24v6.33l-.24-.24,34.67.11,10.23.07,2.77,0,.72,0h.26s-.07,0-.22,0l-.7,0-2.71,0-10.18.07-34.84.11h-.24v-.25c0-2.06,0-4.18,0-6.33v-6.53h0l.25-.24,48.65.09h.15v.15c0,4.07-.06,7.29-.08,9.54,0,1.07,0,1.9,0,2.5v.63C305.43,327.61,305.43,327.68,305.42,327.67Z" style="fill:#e0e0e0"></path><path d="M312,314.8a.68.68,0,0,1,0-.24c0-.19,0-.41,0-.68,0-.64,0-1.5-.05-2.58,0-2.26-.05-5.45-.09-9.37l.18.18-29.23.07c-.23.22.3-.3.24-.25h0v6.62c0,2.16,0,4.24,0,6.24l-.24-.23,20.92.11,6.09.07,1.64,0,.59,0a3.28,3.28,0,0,1-.53,0l-1.6,0-6,.07-21.08.11h-.23v-.24c0-2,0-4.08,0-6.24v-6.62h0l.25-.25,29.23.07h.18v.17c-.05,4-.08,7.19-.1,9.47,0,1.07,0,1.92-.05,2.55A8.46,8.46,0,0,1,312,314.8Z" style="fill:#e0e0e0"></path><path d="M76.07,143.43s0-.08,0-.23l0-.66c0-.61,0-1.46,0-2.54,0-2.22-.05-5.41-.09-9.44l.15.15-48.65.1.25-.25h0v6.52c0,2.15,0,4.26,0,6.33l-.24-.24,34.67.11,10.24.07,2.76,0h.73a1.27,1.27,0,0,1,.25,0h-.22l-.7,0-2.71,0-10.18.07-34.84.11h-.24v-.24c0-2.07,0-4.18,0-6.33v-6.52h0l.25-.25,48.65.1h.15v.15c0,4.06-.06,7.29-.08,9.53,0,1.07,0,1.9,0,2.5v.63C76.08,143.37,76.08,143.43,76.07,143.43Z" style="fill:#e0e0e0"></path><path d="M82.67,130.56a1.41,1.41,0,0,1,0-.25c0-.18,0-.41,0-.68,0-.63,0-1.49,0-2.58,0-2.26-.06-5.44-.1-9.36l.18.18-29.23.07.25-.25h0v6.61c0,2.15,0,4.24,0,6.24l-.23-.24,20.91.11,6.09.07,1.64,0,.59,0a3.28,3.28,0,0,1-.53,0l-1.59,0-6,.06-21.07.11H53.2v-.24c0-2,0-4.09,0-6.24v-6.61h0c-.06,0,.47-.47.25-.25l29.23.07h.18v.18c0,4-.08,7.19-.1,9.47,0,1.07,0,1.92,0,2.54S82.68,130.57,82.67,130.56Z" style="fill:#e0e0e0"></path><path d="M474.34,170.57s0-.09,0-.24l0-.66c0-.6,0-1.45,0-2.53,0-2.22,0-5.42-.08-9.45l.15.16-48.65.09.25-.25h0v6.53c0,2.15,0,4.27,0,6.34l-.24-.25,34.67.11,10.23.07,2.77,0,.72,0,.26,0h-.22l-.7,0-2.71,0-10.18.07-34.84.11h-.24v-.24c0-2.07,0-4.19,0-6.34V157.7h0l.25-.24,48.65.09h.15v.15c0,4.07-.06,7.3-.08,9.54,0,1.07,0,1.9,0,2.5v.63A.85.85,0,0,1,474.34,170.57Z" style="fill:#e0e0e0"></path><path d="M480.94,157.69a1.1,1.1,0,0,1,0-.24c0-.19,0-.41,0-.68,0-.64,0-1.5,0-2.58,0-2.26-.06-5.45-.1-9.37l.18.18-29.23.07c-.23.22.3-.3.24-.25h0v6.62c0,2.16,0,4.24,0,6.24l-.23-.23,20.91.11,6.09.07,1.64,0,.59,0a3.28,3.28,0,0,1-.53,0l-1.6,0-6,.07-21.07.11h-.24v-.24c0-2,0-4.08,0-6.24v-6.62h0c-.06.06.47-.47.25-.24l29.23.07h.18v.17c0,4-.08,7.19-.1,9.48,0,1.06,0,1.91,0,2.54S481,157.71,480.94,157.69Z" style="fill:#e0e0e0"></path><rect x="143.83" y="386.54" width="108.28" height="83.52" transform="translate(395.95 856.6) rotate(180)" style="fill:#f5f5f5"></rect><path d="M171,469.47c.15,0,.27-18.62.27-41.57s-.12-41.58-.27-41.58-.27,18.61-.27,41.58S170.81,469.47,171,469.47Z" style="fill:#ebebeb"></path><rect x="153.01" y="451.05" width="8.3" height="9.38" transform="translate(314.33 911.49) rotate(180)" style="fill:#fafafa"></rect><rect x="206.78" y="386.76" width="12.3" height="17.82" style="fill:#ebebeb"></rect><rect x="206.78" y="451.99" width="12.3" height="17.82" style="fill:#ebebeb"></rect><rect x="245.75" y="364.27" width="136.7" height="105.44" style="fill:#ebebeb"></rect><path d="M348.21,469c-.15,0-.28-23.5-.28-52.49s.13-52.49.28-52.49.27,23.5.27,52.49S348.36,469,348.21,469Z" style="fill:#e0e0e0"></path><rect x="360.38" y="445.71" width="10.48" height="11.85" style="fill:#fafafa"></rect><rect x="287.46" y="364.54" width="15.53" height="22.5" style="fill:#e0e0e0"></rect><rect x="287.46" y="446.89" width="15.53" height="22.5" style="fill:#e0e0e0"></rect></g><g id="freepik--Floor--inject-5"><path d="M461,470.92c0,.14-94.46.26-211,.26s-211-.12-211-.26,94.44-.26,211-.26S461,470.77,461,470.92Z" style="fill:#263238"></path></g><g id="freepik--Plant--inject-5"><path d="M91.85,441.13s-4.34-29.83-4-47.19,0-36.89,0-36.89h2s-1.35,34.46.12,55.24,5.35,28.84,5.35,28.84H91.85" style="fill:#263238"></path><path d="M104.78,323.49a5.37,5.37,0,0,0-1.82-2.67c-1.27-.81-2.94-.47-4.35,0-6,2.14-11.4,13.4-13.84,19.33l8,27C107.27,353.77,109.77,336.15,104.78,323.49Z" style="fill:#455a64"></path><path d="M102.49,321.91a1.35,1.35,0,0,1-.12.35l-.39,1c-.35.85-.85,2.09-1.44,3.62-1.18,3.07-2.68,7.36-4,12.2s-2.26,9.29-2.83,12.53c-.29,1.62-.5,2.93-.64,3.84-.07.42-.12.77-.17,1.05a1.72,1.72,0,0,1-.08.36,1.49,1.49,0,0,1,0-.37c0-.28.07-.63.11-1.06.1-.91.28-2.24.54-3.86a114.05,114.05,0,0,1,6.88-24.77c.61-1.53,1.14-2.76,1.53-3.59l.45-1A2.07,2.07,0,0,1,102.49,321.91Z" style="fill:#263238"></path><path d="M89.22,373.69a24.47,24.47,0,0,1-12.36-20.55c-.29-6,1.55-11.89,3.64-17.52a2.27,2.27,0,0,1,.85-1.27,2.15,2.15,0,0,1,2.05.32c5.46,3.11,8.77,9,10.54,15.08a30.49,30.49,0,0,1,1.23,12.4,20.6,20.6,0,0,1-6,11.54" style="fill:#455a64"></path><path d="M89.22,373.69a1.82,1.82,0,0,1,0-.37c0-.27,0-.61,0-1,0-.9,0-2.21-.11-3.81A103,103,0,0,0,87.67,356c-.84-4.84-1.85-9.18-2.6-12.31-.36-1.53-.67-2.79-.89-3.71-.09-.41-.17-.74-.23-1a1.59,1.59,0,0,1-.06-.36,1.3,1.3,0,0,1,.13.34c.07.26.17.59.29,1,.25.86.59,2.12,1,3.68.81,3.12,1.86,7.46,2.69,12.31a92.67,92.67,0,0,1,1.31,12.54c0,1.61,0,2.92,0,3.82,0,.42,0,.76,0,1S89.24,373.69,89.22,373.69Z" style="fill:#263238"></path><g style="opacity:0.30000000000000004"><path d="M89.22,373.69a24.47,24.47,0,0,1-12.36-20.55c-.29-6,1.55-11.89,3.64-17.52a2.27,2.27,0,0,1,.85-1.27,2.15,2.15,0,0,1,2.05.32c5.46,3.11,8.77,9,10.54,15.08a30.49,30.49,0,0,1,1.23,12.4,20.6,20.6,0,0,1-6,11.54"></path></g><path d="M97.71,419.33c7.4,1.63,13.49,6.85,20.63,9.39,4.72,1.68,10.06,2.27,13.83,5.57-.9-2.28-3-3.8-5.13-5.11a92.48,92.48,0,0,0-18.7-8.92c-3.36-1.16-7-2.13-10.43-1.18" style="fill:#455a64"></path><path d="M87,425.93c-9.27-.15-19-8-28.25-8.51,9.65-3.12,23.47-.57,28.25,8.51" style="fill:#455a64"></path><path d="M90.63,403.7a30.08,30.08,0,0,1,14.81-1,90,90,0,0,1,14.47,3.93c-.48-3.22-3.08-5.63-5.53-7.77a38,38,0,0,0-5.81-4.47,12.89,12.89,0,0,0-7-2,11,11,0,0,0-7.69,3.87,12.78,12.78,0,0,0-3.29,7.41" style="fill:#455a64"></path><path d="M71.61,393.46c-5.84-5-14.67-4.49-22.34-4.32a182.24,182.24,0,0,1,34.64,21.59C84.23,405.31,79,399.76,71.61,393.46Z" style="fill:#455a64"></path><g style="opacity:0.30000000000000004"><path d="M71.61,393.46c-5.84-5-14.67-4.49-22.34-4.32a182.24,182.24,0,0,1,34.64,21.59C84.23,405.31,79,399.76,71.61,393.46Z"></path></g><path d="M93.25,386.59a65.44,65.44,0,0,1,9-5.22c3.07-1.39,5.94-3.61,8.9-5.22,3.85-2.08,7.18-5,10.71-7.56s7.41-4.91,11.73-5.59a23.09,23.09,0,0,0-10.67.61,70.14,70.14,0,0,0-10,3.91c-4.55,2.05-9.18,4.15-12.9,7.48s-7.08,6.61-6.69,11.59" style="fill:#455a64"></path><path d="M118.17,425.93a1.23,1.23,0,0,1-.29-.13l-.81-.42c-.7-.37-1.7-.92-3-1.55-.63-.33-1.32-.68-2.07-1s-1.55-.73-2.41-1.1a33.78,33.78,0,0,0-5.71-2,12.26,12.26,0,0,0-5.94-.15,16.63,16.63,0,0,0-2.52.75,13,13,0,0,0-4.59,3.15c-.53.58-.8.93-.82.91a1.31,1.31,0,0,1,.17-.27,7,7,0,0,1,.56-.72,12.32,12.32,0,0,1,4.58-3.32,16.23,16.23,0,0,1,2.55-.8,12.37,12.37,0,0,1,6.09.13,33.32,33.32,0,0,1,5.75,2c.86.38,1.67.75,2.41,1.13s1.43.72,2,1.07c1.25.66,2.24,1.24,2.92,1.65l.78.47A1.4,1.4,0,0,1,118.17,425.93Z" style="fill:#263238"></path><path d="M80.09,421.33a2.21,2.21,0,0,1,.59.17,15.61,15.61,0,0,1,1.51.66,18.78,18.78,0,0,1,4.42,3.14,18.48,18.48,0,0,1,3.32,4.3,12.2,12.2,0,0,1,.71,1.48,2.1,2.1,0,0,1,.2.58c-.06,0-.4-.77-1.11-1.94a20.64,20.64,0,0,0-7.65-7.35C80.87,421.7,80.07,421.39,80.09,421.33Z" style="fill:#263238"></path><path d="M59.59,393a2.08,2.08,0,0,1,.4.12l1.11.39,1.75.65c.69.25,1.43.63,2.27,1a53.59,53.59,0,0,1,12.06,7.68,59.33,59.33,0,0,1,5.63,5.54c1.59,1.84,2.94,3.56,4,5.06s1.86,2.75,2.41,3.61l.64,1a1.79,1.79,0,0,1,.2.36,2.77,2.77,0,0,1-.26-.32c-.16-.22-.4-.54-.69-1-.58-.85-1.41-2.07-2.49-3.55s-2.43-3.18-4-5A61.22,61.22,0,0,0,77,403.1a56.32,56.32,0,0,0-12-7.73c-.83-.38-1.56-.77-2.24-1l-1.73-.7L60,393.18Z" style="fill:#263238"></path><path d="M104.53,398.49a4,4,0,0,1-.74-.1l-.85-.16c-.33-.06-.71-.06-1.13-.1a11.49,11.49,0,0,0-9.27,3.4,13.35,13.35,0,0,0-1.87,2.31,19,19,0,0,0-1.27,2.43,2.42,2.42,0,0,1,.19-.73,10.45,10.45,0,0,1,.89-1.83,12.1,12.1,0,0,1,1.84-2.39,11.28,11.28,0,0,1,9.51-3.43c.42.06.81.08,1.14.16l.85.22A2.51,2.51,0,0,1,104.53,398.49Z" style="fill:#263238"></path><path d="M113.85,369.59a2.14,2.14,0,0,1-.35.22l-1,.56c-.9.48-2.19,1.2-3.76,2.13s-3.41,2.09-5.37,3.49a43.94,43.94,0,0,0-6,5,15.47,15.47,0,0,0-2.46,3.17c-.6,1.17-1.18,2.3-1.72,3.38a61.17,61.17,0,0,0-2.57,5.86,34.4,34.4,0,0,0-1.25,4.13c-.24,1-.33,1.55-.36,1.54a1.81,1.81,0,0,1,0-.41c0-.26.09-.66.19-1.16a29,29,0,0,1,1.16-4.18,55.65,55.65,0,0,1,2.52-5.92c.53-1.08,1.1-2.22,1.71-3.38a14.9,14.9,0,0,1,2.5-3.26,43.54,43.54,0,0,1,6.05-5c2-1.39,3.85-2.53,5.43-3.45s2.91-1.58,3.82-2l1.07-.51A2.07,2.07,0,0,1,113.85,369.59Z" style="fill:#263238"></path><path d="M87.86,397.65a3.35,3.35,0,0,1-.18-.78c-.11-.57-.25-1.29-.41-2.14a54.58,54.58,0,0,0-4.4-13.62l-.9-2a4.06,4.06,0,0,1-.3-.74,3.49,3.49,0,0,1,.42.69c.24.45.59,1.11,1,1.94a46.47,46.47,0,0,1,2.75,6.66,47.4,47.4,0,0,1,1.67,7c.15.91.25,1.65.31,2.16A4.34,4.34,0,0,1,87.86,397.65Z" style="fill:#263238"></path><path d="M87.19,376.57a25.18,25.18,0,0,0-3-10,33,33,0,0,0-22.39-16.69l20.73,30.89,2.67,5.51A15.82,15.82,0,0,0,87.19,376.57Z" style="fill:#455a64"></path><rect x="68.73" y="437.44" width="48.19" height="8.54" style="fill:#6B84FF"></rect><polygon points="72.33 444.29 76.43 470.79 108.42 470.79 113.32 444.29 72.33 444.29" style="fill:#6B84FF"></polygon><path d="M116.89,446c0,.09-10.87.17-24.27.17s-24.28-.08-24.28-.17,10.87-.17,24.28-.17S116.89,445.9,116.89,446Z" style="fill:#263238"></path></g><g id="freepik--Box--inject-5"><rect x="233.01" y="406.95" width="82.68" height="63.77" transform="translate(548.7 877.67) rotate(180)" style="fill:#6B84FF"></rect><rect x="240.02" y="456.2" width="6.34" height="7.17" transform="translate(486.38 919.57) rotate(180)" style="fill:#fafafa"></rect><g style="opacity:0.30000000000000004"><rect x="281.07" y="407.11" width="9.39" height="13.61" style="fill:#fff"></rect></g><g style="opacity:0.30000000000000004"><rect x="281.07" y="456.92" width="9.39" height="13.61" style="fill:#fff"></rect></g><path d="M253.65,471.16c-.25,0-.46-14-.46-31.33s.21-31.32.46-31.32.45,14,.45,31.32S253.9,471.16,253.65,471.16Z" style="fill:#263238"></path></g><g id="freepik--Barcode--inject-5"><rect x="86.49" y="75.05" width="4.92" height="189.81" style="fill:#263238"></rect><rect x="95.4" y="75.05" width="4.17" height="189.81" style="fill:#263238"></rect><rect x="104.39" y="75.05" width="15.3" height="156.9" style="fill:#263238"></rect><rect x="123.57" y="75.05" width="3.77" height="156.9" style="fill:#263238"></rect><rect x="135.96" y="75.05" width="3.77" height="156.9" style="fill:#263238"></rect><rect x="152.12" y="75.05" width="3.77" height="156.9" style="fill:#263238"></rect><rect x="165.58" y="75.05" width="3.77" height="156.9" style="fill:#263238"></rect><rect x="209.5" y="75.05" width="3.77" height="156.9" style="fill:#263238"></rect><rect x="274.12" y="75.05" width="8.14" height="184.12" style="fill:#263238"></rect><rect x="318.07" y="75.05" width="3.77" height="156.9" style="fill:#263238"></rect><rect x="334.52" y="75.05" width="3.77" height="156.9" style="fill:#263238"></rect><rect x="347.04" y="74.8" width="9.24" height="193.12" style="fill:#263238"></rect><rect x="245.8" y="75.05" width="3.77" height="156.9" style="fill:#263238"></rect><rect x="189.13" y="75.05" width="7.73" height="156.9" style="fill:#263238"></rect><rect x="221.16" y="75.05" width="7.73" height="156.9" style="fill:#263238"></rect><rect x="233.36" y="75.05" width="7.73" height="156.9" style="fill:#263238"></rect><rect x="291.08" y="75.05" width="7.73" height="156.9" style="fill:#263238"></rect><rect x="302.76" y="75.05" width="7.73" height="156.9" style="fill:#263238"></rect><rect x="254.41" y="75.05" width="14.53" height="156.9" style="fill:#263238"></rect><rect x="173.07" y="75.05" width="11.91" height="156.9" style="fill:#263238"></rect><path d="M121.16,240.53v33.63h-3.45V243.61h-7.93v-3.08Z" style="fill:#263238"></path><path d="M153.32,259.7a7.85,7.85,0,0,1,1.71,5.09,8.49,8.49,0,0,1-1.59,5.12,10,10,0,0,1-4.54,3.36,18.78,18.78,0,0,1-6.94,1.17q-6,0-9.51-2.59a8.37,8.37,0,0,1-3.46-7.06,8,8,0,0,1,1.66-5.12,10,10,0,0,1,4.83-3.14,8.36,8.36,0,0,1-3.94-2.91,7.53,7.53,0,0,1-1.35-4.49,7.69,7.69,0,0,1,3.2-6.48,14,14,0,0,1,8.57-2.41,16.46,16.46,0,0,1,6.22,1.09,9.47,9.47,0,0,1,4.16,3.09,7.76,7.76,0,0,1,1.49,4.71,7.36,7.36,0,0,1-1.4,4.49,8.58,8.58,0,0,1-4,2.91A10.15,10.15,0,0,1,153.32,259.7Zm-4.37,10a5.8,5.8,0,0,0,2.52-4.95,5.73,5.73,0,0,0-2.52-4.92,14.38,14.38,0,0,0-13.93,0,6.13,6.13,0,0,0,0,9.89,14.34,14.34,0,0,0,13.95,0Zm-13.09-16a12.29,12.29,0,0,0,12.23,0,5.15,5.15,0,0,0,2.23-4.37,5.21,5.21,0,0,0-2.28-4.47,10.23,10.23,0,0,0-6.08-1.63,10.07,10.07,0,0,0-6.07,1.63,5.5,5.5,0,0,0,0,8.84Z" style="fill:#263238"></path><path d="M180.53,244.64q3.56,4.4,3.56,12.42a21.38,21.38,0,0,1-1.92,9.51,13.56,13.56,0,0,1-5.38,5.88,15.89,15.89,0,0,1-8.07,2,15.16,15.16,0,0,1-8-1.82l1.4-2.79a11.68,11.68,0,0,0,6.53,1.59,11.16,11.16,0,0,0,8.74-3.53c2.11-2.36,3.17-5.77,3.17-10.26,0-.83-.05-1.74-.14-2.74a9.14,9.14,0,0,1-4,4.26,12.89,12.89,0,0,1-6.29,1.51,13.38,13.38,0,0,1-5.89-1.25,9.58,9.58,0,0,1-4-3.53,9.73,9.73,0,0,1-1.44-5.31,10,10,0,0,1,1.49-5.43,9.85,9.85,0,0,1,4.11-3.62,13.22,13.22,0,0,1,5.88-1.28Q177,240.24,180.53,244.64Zm-5.35,12.13a7.64,7.64,0,0,0,3-2.64,6.72,6.72,0,0,0,1.1-3.75,6.47,6.47,0,0,0-1-3.55,7.52,7.52,0,0,0-3.05-2.65,10.69,10.69,0,0,0-4.8-1,8.69,8.69,0,0,0-5.94,2,6.71,6.71,0,0,0-2.28,5.31,6.62,6.62,0,0,0,2.28,5.28,9.15,9.15,0,0,0,6.18,2A10.05,10.05,0,0,0,175.18,256.77Z" style="fill:#263238"></path><path d="M198.31,240.53v33.63h-3.46V243.61h-7.93v-3.08Z" style="fill:#263238"></path><path d="M225.8,256.94a8.75,8.75,0,0,1,3.34,7.32,10,10,0,0,1-1.37,5.24,9.35,9.35,0,0,1-4.1,3.62,15.3,15.3,0,0,1-6.73,1.32,20,20,0,0,1-6.84-1.17,14.22,14.22,0,0,1-5.22-3.15l1.69-2.74a12.26,12.26,0,0,0,4.42,2.81,15.91,15.91,0,0,0,5.9,1.08,9.91,9.91,0,0,0,6.46-1.87,6.14,6.14,0,0,0,2.29-5,6,6,0,0,0-2.57-5.24c-1.72-1.18-4.61-1.78-8.67-1.78h-7.16L209,240.53h18.39v3.08H212l-1.15,10.71h4.32Q222.47,254.32,225.8,256.94Z" style="fill:#263238"></path><path d="M240,272.38a13.5,13.5,0,0,1-4.75-5.93,25.1,25.1,0,0,1,0-18.21,13.56,13.56,0,0,1,4.75-5.93,12.69,12.69,0,0,1,13.89,0,13.74,13.74,0,0,1,4.77,5.93,24.82,24.82,0,0,1,0,18.21,13.68,13.68,0,0,1-4.77,5.93,12.74,12.74,0,0,1-13.89,0Zm12.11-2.74a10.53,10.53,0,0,0,3.48-4.75,23.4,23.4,0,0,0,0-15.09,10.53,10.53,0,0,0-3.48-4.75,9,9,0,0,0-10.33,0,10.53,10.53,0,0,0-3.48,4.75,23.4,23.4,0,0,0,0,15.09,10.53,10.53,0,0,0,3.48,4.75,9,9,0,0,0,10.33,0Z" style="fill:#263238"></path><path d="M314.52,240.18v2.32l-13.38,29.64h-3.56l13.15-29H294.29v6h-3.24v-8.9Z" style="fill:#263238"></path><path d="M340.68,269.21v2.93H318.26v-2.33l13.29-13a17.35,17.35,0,0,0,3.4-4.27,8.09,8.09,0,0,0,.89-3.63,5.37,5.37,0,0,0-1.94-4.41,8.59,8.59,0,0,0-5.55-1.57q-5.61,0-8.72,3.56l-2.32-2a12.15,12.15,0,0,1,4.77-3.38,17.15,17.15,0,0,1,6.55-1.19,12,12,0,0,1,7.74,2.31,7.67,7.67,0,0,1,2.85,6.32,10.7,10.7,0,0,1-1.1,4.75,19.9,19.9,0,0,1-4.15,5.25L323.1,269.21Z" style="fill:#263238"></path></g><g id="freepik--Character--inject-5"><polygon points="283.11 163.23 263.14 185.78 290.32 196.14 310.47 171.55 283.11 163.23" style="fill:#6B84FF"></polygon><path d="M310.47,171.55s57.68,59.9,57.13,60.27-17,20.15-17,20.15l-60.27-55.83Z" style="fill:#6B84FF"></path><polygon points="263.14 185.78 320.64 241.06 350.59 251.97 290.32 196.14 263.14 185.78" style="fill:#6B84FF"></polygon><g style="opacity:0.30000000000000004"><polygon points="263.14 185.78 320.64 241.06 350.59 251.97 290.32 196.14 263.14 185.78"></polygon></g><g style="opacity:0.30000000000000004"><polygon points="283.11 163.23 263.14 185.78 290.32 196.14 310.47 171.55 283.11 163.23" style="fill:#fff"></polygon></g><path d="M338.93,201s6.57.25,7.32,1,6.57,12.54,6.57,12.54l2,1.24.56,17.54-17.48,1.53-5.9,3.51-5.81-.52a2.05,2.05,0,0,1-1.93-1.79l-.47-3.77s2.4-.56,3,1.16l.22.81,3.22.24,3.44-2.55.23-1.35-11.23.75L318,228.06s2-2.49,4-1.45a10.5,10.5,0,0,1,1.53.74l9.38-2.21-18.09.18a3.47,3.47,0,0,1,3.58-3.84c2.77-.08,9.8-.83,9.8-.83s5.39-.45,5.61-2.24-15.19-5.91-15.93-7.86.14-3.89,3.74-2.77,13.91,5.54,16.83,5.32,5.54-2.85,5.69-4-1.5-4.71-1.5-4.71S338.65,204.13,338.93,201Z" style="fill:#ffbf9d"></path><path d="M291.22,165.7c-.26-.08-7.94,8.65-7.94,8.65l5.9,1.8,8.3-8.55Z" style="fill:#fff"></path><path d="M273.4,189.69c-.11-.1,4.5-5.38,10.3-11.8s10.58-11.54,10.69-11.45-4.51,5.38-10.3,11.8S273.51,189.79,273.4,189.69Z" style="fill:#263238"></path><path d="M333.27,245.66c-.09.11-13.58-12.08-30.11-27.21S273.3,191,273.4,190.85s13.58,12.08,30.11,27.22S333.37,245.56,333.27,245.66Z" style="fill:#263238"></path><path d="M360.63,171l2.59,3c.19,14.63,15.09,35,15.09,35l7.84-33.17-2.85-12.67-8.55-1-3.36-4.49Z" style="fill:#455a64"></path><path d="M347.43,139.29c-3.09.93-7.64,5.64-11.6,10-1.89,2.12-.85,5.81,1.15,7.81l2.57,2.57a5.37,5.37,0,0,0,3.19,1.54h0a5.39,5.39,0,0,0,3.94-1.15l1.78-1.43a5.35,5.35,0,0,1,7.38.67l7.43,8.55a5.35,5.35,0,0,0,7.86.23l0,0a5.34,5.34,0,0,0,.33-7.1l-16.59-20.4a5.06,5.06,0,0,0-1.59-1.32C352.11,138.62,350.32,138.43,347.43,139.29Z" style="fill:#6B84FF"></path><path d="M346.86,160a15.34,15.34,0,0,0,2.64,1.74s-1.47,2.07-.06,3.48a6.25,6.25,0,0,0,3.39,1.62,3.42,3.42,0,0,0,2.75,3.58c3,.71,11.35-.51,11.65-1.28s1-2.84-.92-3.31a23,23,0,0,0-4.56-.46s4-1.47,1.61-4.64c-1.07-1.46-5.9,0-5.9,0l-3.61.41s3.3-2.33.73-4.67a2,2,0,0,0-3,0Z" style="fill:#ffbf9d"></path><path d="M361.5,154.07s-2.92-.38-2.25-2.17a21.91,21.91,0,0,1,3.9-5.7,3,3,0,0,1,3.15-1c.89.37,4,2.69,4.49,5.39s1,5.84.6,7.11a12.74,12.74,0,0,1-.89,2l-5.14-6.33S362.73,154.42,361.5,154.07Z" style="fill:#ffbf9d"></path><path d="M350.69,157.09a7.8,7.8,0,0,1,.44-1.58v.05a3.21,3.21,0,0,0-.5-1.61,15.21,15.21,0,0,0-1.56-1.67L345,148.14a4.07,4.07,0,0,0-4-.85,4.73,4.73,0,0,0-1.62.93L338,149.28l-1.92,1.57c-.46.37-.68.58-.7.57s.81-1,2.39-2.42c.39-.35.83-.73,1.31-1.12a5.25,5.25,0,0,1,1.74-1,4.52,4.52,0,0,1,4.47.93c1.52,1.53,2.88,3,4.06,4.21a13.22,13.22,0,0,1,1.56,1.79,3.44,3.44,0,0,1,.45,1.8v.05A6.8,6.8,0,0,1,350.69,157.09Z" style="fill:#263238"></path><path d="M357.29,150.51a10.68,10.68,0,0,1-2.44,2.92,10.53,10.53,0,0,1-3,2.31,20.75,20.75,0,0,1,2.66-2.68A19.82,19.82,0,0,1,357.29,150.51Z" style="fill:#263238"></path><path d="M355.18,160.88a7.91,7.91,0,0,1-2.81.71,8.24,8.24,0,0,1-2.9.19,8.22,8.22,0,0,1,2.82-.7A8.35,8.35,0,0,1,355.18,160.88Z" style="fill:#ff9a6c"></path><path d="M362.64,165.08a13.92,13.92,0,0,1-4.8,1.6,13.76,13.76,0,0,1-5,.28c0-.15,2.24-.26,4.95-.79S362.58,164.93,362.64,165.08Z" style="fill:#ff9a6c"></path><path d="M367.66,149.29a3.94,3.94,0,0,1-2.91,4.26c-.07-.14,1-.68,1.82-1.88A17.68,17.68,0,0,0,367.66,149.29Z" style="fill:#ff9a6c"></path><path d="M337.25,153.55s3.8,5.33,5.49,5.43c1.2.07,3-2,4-3.32a1.29,1.29,0,0,0-.13-1.71l-4.11-4-1-.25Z" style="fill:#263238"></path><g style="opacity:0.6000000000000001"><path d="M337.45,153.39,312.4,173.55l23.37,24.36,11.09-42.51a1.25,1.25,0,0,0-.16-1.33l-4.23-4.1-1-.25-4.07,3.67Z" style="fill:#fff"></path></g><path d="M431,86l-2.76,46.47c-.48,7.9-2.78,19.42-15.24,18.1h0c-10.73-2-12.86-12.39-12.41-19.77.21-3.5.38-6.41.38-6.77,0,0-11.77-1.82-11.93-13.58-.07-5.69.73-17.41,1.57-28a21.9,21.9,0,0,1,21.82-20.15h1.14C425.84,63,432.08,73.82,431,86Z" style="fill:#ffbf9d"></path><path d="M401,124.07a28.43,28.43,0,0,0,15.3-4.55s-3.72,8.6-15.46,7.55Z" style="fill:#ff9a6c"></path><path d="M410.29,88.72c.21.25,1.64-.74,3.6-.65s3.36,1.16,3.58.92-.1-.55-.7-1a4.9,4.9,0,0,0-2.86-1,4.68,4.68,0,0,0-2.88.82C410.41,88.17,410.18,88.61,410.29,88.72Z" style="fill:#263238"></path><path d="M409.51,94.41A1.6,1.6,0,0,0,411,96a1.53,1.53,0,0,0,1.64-1.44,1.59,1.59,0,0,0-1.53-1.6A1.52,1.52,0,0,0,409.51,94.41Z" style="fill:#263238"></path><path d="M404.4,102a11.84,11.84,0,0,0-2.93-.53c-.47,0-.9-.13-1-.45a2.31,2.31,0,0,1,.31-1.37c.43-1.12.88-2.29,1.36-3.51,1.89-5,3.26-9.12,3-9.2s-1.9,3.92-3.79,8.93c-.45,1.23-.89,2.41-1.3,3.54a2.73,2.73,0,0,0-.24,1.81,1.19,1.19,0,0,0,.76.67,3,3,0,0,0,.79.11A11.65,11.65,0,0,0,404.4,102Z" style="fill:#263238"></path><path d="M410.26,82.52c.2.43,1.77.06,3.65.1s3.44.42,3.65,0c.09-.2-.21-.59-.86-1a5.91,5.91,0,0,0-2.78-.7,5.81,5.81,0,0,0-2.78.62C410.48,81.93,410.17,82.31,410.26,82.52Z" style="fill:#e0e0e0"></path><path d="M392.45,83.25c.18.36,1.74.08,3.6.16s3.37.42,3.59.07c.1-.17-.18-.51-.81-.84a6.44,6.44,0,0,0-2.7-.65,6.67,6.67,0,0,0-2.77.47C392.7,82.75,392.37,83.07,392.45,83.25Z" style="fill:#e0e0e0"></path><path d="M430.09,94.74c.2-.08,8.08-2.39,7.83,5.65s-8.27,6.13-8.28,5.9S430.09,94.74,430.09,94.74Z" style="fill:#ffbf9d"></path><path d="M432.19,103.32s.14.1.37.22a1.45,1.45,0,0,0,1.05,0c.86-.29,1.62-1.61,1.7-3.06a4.72,4.72,0,0,0-.33-2,1.63,1.63,0,0,0-1-1.11.73.73,0,0,0-.84.36c-.11.22-.07.39-.11.4s-.17-.14-.09-.47a.88.88,0,0,1,.33-.49A1,1,0,0,1,434,97a2,2,0,0,1,1.42,1.3,4.7,4.7,0,0,1,.42,2.25c-.1,1.62-1,3.11-2.15,3.41a1.48,1.48,0,0,1-1.27-.25C432.2,103.51,432.17,103.33,432.19,103.32Z" style="fill:#ff9a6c"></path><path d="M441.69,82.53c-1.47-3-1.62-6.35-2.3-9.57s-2.21-6.61-5.23-7.94l-.07,0c-2.69-1.32-6.12-1.58-8.54.18-.26-4.21-3.68-7.77-7.67-9.13s-10.56-1.19-14.57.1c-3.1,1-6.2,3.27-10,6.67a39.18,39.18,0,0,0-4.45,4.66L384.53,78.2l2.62,5.94a12.48,12.48,0,0,0,.51,1.21v0l1.86,12.27c.41-3.28,1-14.75,1.4-18a18.47,18.47,0,0,0,13.52-5.1c1.94-1.87,3.53-4.26,6-5.28,3.21-1.31,6.83.08,10,1.45l-.13-.14a14.76,14.76,0,0,1,4.3,3.6,45.74,45.74,0,0,0,.58,19.45c.24,1,.94,2.94,1.83,3.36,1.75.82,2.37-1,3.52-1.87a4.76,4.76,0,0,1,3.33-.57,71.31,71.31,0,0,0,2.8-8.16,7.39,7.39,0,0,0,3.35.47c-.28-.86-.57-1.71-.85-2.56a3.79,3.79,0,0,0,1.39.76,1.32,1.32,0,0,0,1.41-.5C442.36,83.89,442,83.15,441.69,82.53Z" style="fill:#e0e0e0"></path><path d="M421.78,66.31a10.79,10.79,0,0,1,1.09,1.16,8.37,8.37,0,0,1,1.52,4,14.58,14.58,0,0,1,.08,3c-.07,1.08-.24,2.22-.41,3.43a28.79,28.79,0,0,0-.36,3.83,14.1,14.1,0,0,0,.11,2,4.21,4.21,0,0,0,.69,2,1.75,1.75,0,0,0,1.61.68,2.65,2.65,0,0,0,1.54-.73,6,6,0,0,0,1.34-2.9l-.24,0A9.58,9.58,0,0,0,430,85.41a3.53,3.53,0,0,0,2.19,1.4,2.29,2.29,0,0,0,1.22-.12,2,2,0,0,0,.88-.75,2.14,2.14,0,0,0,.32-1,1.52,1.52,0,0,0-.31-.94l-.13.11a7.49,7.49,0,0,0,2.37,2.06,5.84,5.84,0,0,0,.76.36,1,1,0,0,0,.27.09s-.08,0-.25-.13-.42-.21-.73-.4A7.67,7.67,0,0,1,434.29,84l-.13.1a1.51,1.51,0,0,1-.05,1.74,1.76,1.76,0,0,1-.79.66,2,2,0,0,1-1.11.1,3.22,3.22,0,0,1-2-1.33,9.43,9.43,0,0,1-1.2-2.49l-.14-.39-.11.4a5.85,5.85,0,0,1-1.28,2.76,2.36,2.36,0,0,1-1.38.66,1.51,1.51,0,0,1-1.37-.57,4.12,4.12,0,0,1-.63-1.9,15,15,0,0,1-.12-2,32.51,32.51,0,0,1,.35-3.79c.16-1.21.32-2.36.39-3.46a14.85,14.85,0,0,0-.12-3,8.31,8.31,0,0,0-1.62-4A4.72,4.72,0,0,0,421.78,66.31Z" style="fill:#fff"></path><path d="M384.78,75.08l.09.09.28.23a2.86,2.86,0,0,0,.47.35,7.7,7.7,0,0,0,.69.43,10.46,10.46,0,0,0,4.94,1.26,13.26,13.26,0,0,0,7.24-2.1,23,23,0,0,0,6.57-6.55c.95-1.35,1.75-2.75,2.61-4a15.07,15.07,0,0,1,2.87-3.37,7.92,7.92,0,0,1,3.51-1.8,5.44,5.44,0,0,1,1.79-.08,6.24,6.24,0,0,1,1.61.43,6.83,6.83,0,0,1,2.33,1.64,7,7,0,0,1,1.2,1.81,7.72,7.72,0,0,1,.47,1.8s0-.05,0-.13a2.73,2.73,0,0,0,0-.36,5.58,5.58,0,0,0-.34-1.35,6.88,6.88,0,0,0-3.56-3.59,6.45,6.45,0,0,0-1.65-.46,6.15,6.15,0,0,0-1.86.06,8.37,8.37,0,0,0-3.64,1.83,16.3,16.3,0,0,0-2.93,3.42c-.87,1.3-1.66,2.69-2.61,4a22.88,22.88,0,0,1-6.47,6.5,13.29,13.29,0,0,1-7.11,2.12,10.74,10.74,0,0,1-4.89-1.16A18.43,18.43,0,0,1,384.78,75.08Z" style="fill:#fff"></path><path d="M392.38,88.17c.22.26,1.64-.73,3.61-.65s3.35,1.16,3.58.92-.11-.55-.71-1a4.9,4.9,0,0,0-2.85-1,4.71,4.71,0,0,0-2.89.82C392.5,87.63,392.28,88.06,392.38,88.17Z" style="fill:#263238"></path><path d="M393.51,94a1.58,1.58,0,0,0,1.53,1.6,1.51,1.51,0,0,0,1.64-1.43,1.58,1.58,0,0,0-1.53-1.6A1.51,1.51,0,0,0,393.51,94Z" style="fill:#263238"></path><path d="M389.93,66.25c-1.07,1.26-2.67,2.37-4.3,2.09a12.57,12.57,0,0,1-1.72-.61c-.59.31-.57,2.28-.21,2.85a10.49,10.49,0,0,0,1.15,1.34c-2,.92-3.7.31-5.71-.56a10.08,10.08,0,0,0,5.49,8.42,3.57,3.57,0,0,0,3.23.25,4.08,4.08,0,0,0,1.57-2.43,44.2,44.2,0,0,0,2.08-10.68Z" style="fill:#e0e0e0"></path><path d="M403.72,108.53c0,.06.44.25,1.21.25a4.68,4.68,0,0,0,2.81-1,4.74,4.74,0,0,0,1.65-2.48c.19-.75.11-1.23,0-1.24s-.15.45-.42,1.11a5.37,5.37,0,0,1-1.62,2.16,5.31,5.31,0,0,1-2.49,1C404.2,108.48,403.74,108.44,403.72,108.53Z" style="fill:#263238"></path><path d="M394.91,425.88l7,24.71s-22.18,15.55-21.33,20.25l47.25-12.11-9.3-39Z" style="fill:#455a64"></path><path d="M416,444.75a2,2,0,0,1,1.88,1.92A1.94,1.94,0,0,1,416,448.6a2.13,2.13,0,0,1-2-2c.09-1,1.18-2,2.13-1.79" style="fill:#e0e0e0"></path><path d="M427.8,458.73l-1.09-3.89-44.89,13.07s-1.88,1.47-1.27,2.93Z" style="fill:#263238"></path><path d="M401.69,450.72c.06.23,1.24,0,2.56.51s2.17,1.31,2.36,1.16-.49-1.43-2.09-2S401.59,450.51,401.69,450.72Z" style="fill:#263238"></path><path d="M397.43,454.23c0,.24,1.1.39,2.13,1.18s1.51,1.8,1.74,1.73.05-1.44-1.25-2.41S397.38,454,397.43,454.23Z" style="fill:#263238"></path><path d="M395.76,461.08c.22,0,.25-1.27-.65-2.41s-2.12-1.38-2.17-1.16.79.74,1.52,1.69S395.52,461.11,395.76,461.08Z" style="fill:#263238"></path><path d="M400.07,444.73c.15.19,1.13-.4,2.46-.65s2.44-.08,2.51-.31-1.11-.83-2.67-.52S399.91,444.58,400.07,444.73Z" style="fill:#263238"></path><path d="M410.6,427.51l.74,27s-26.46,11.39-26.88,16.33l52.45-.42-.11-43.2Z" style="fill:#455a64"></path><path d="M428,452.72a2.19,2.19,0,0,1,1.5,2.49,2.06,2.06,0,0,1-2.4,1.55,2.33,2.33,0,0,1-1.58-2.65,2.13,2.13,0,0,1,2.67-1.32" style="fill:#e0e0e0"></path><path d="M436.93,470.84l-.19-4.77-50.23,2s-2.33,1.06-2.05,2.74Z" style="fill:#263238"></path><path d="M411.84,455.16c0,.26,1.3.37,2.56,1.2s2,1.94,2.19,1.83-.16-1.62-1.71-2.6S411.79,454.92,411.84,455.16Z" style="fill:#263238"></path><path d="M406.06,457.56c-.06.26,1.05.69,1.93,1.8s1.14,2.27,1.4,2.26.4-1.5-.72-2.85S406.06,457.31,406.06,457.56Z" style="fill:#263238"></path><path d="M402.83,464.45c.23.06.58-1.26-.09-2.69s-1.87-2-2-1.77.64,1,1.18,2.16S402.58,464.43,402.83,464.45Z" style="fill:#263238"></path><path d="M411.35,448.58c.11.23,1.28-.14,2.73-.05s2.58.55,2.71.32-1-1.15-2.67-1.23S411.22,448.37,411.35,448.58Z" style="fill:#263238"></path><path d="M438.76,245.66l1.72,12.47a45.72,45.72,0,0,1,0,12.2L439.34,279s-2.33,64.47-2.44,62.11c0,0,1.25,47.27,2.2,57.3,1.71,18.24.17,51.74.17,51.74H409.44L398.7,344.21l-6.67-66-11.6-30.05Z" style="fill:#263238"></path><path d="M368.54,248.67l.33,12.61,1.8,91.71a46.55,46.55,0,0,0,2.49,12.63l24.43,70.44,1.39,4.83,17.94-4.45L403.58,246.93Z" style="fill:#263238"></path><path d="M392.11,279a3,3,0,0,0,0,.45c0,.32,0,.75,0,1.3,0,1.18.08,2.86.15,5,.12,4.35.42,10.65.85,18.42.91,15.55,2.6,37,5.24,60.63s5.45,45,7.55,60.38l2.52,18.26c.31,2.13.55,3.8.72,5,.08.55.15,1,.2,1.29a2.28,2.28,0,0,0,.08.44,2.49,2.49,0,0,0,0-.45c0-.32-.08-.75-.14-1.29-.14-1.17-.35-2.84-.61-5l-2.35-18.29c-2-15.44-4.79-36.77-7.39-60.39s-4.38-45-5.39-60.58c-.48-7.77-.85-14.06-1-18.41-.11-2.15-.19-3.84-.25-5,0-.55-.06-1-.08-1.31A2.19,2.19,0,0,0,392.11,279Z" style="fill:#455a64"></path><path d="M411.34,450.2a5.75,5.75,0,0,1,.09,1.14c0,.84,0,1.89.08,3.17l-.34,0a.17.17,0,0,0,.08.17c.07,0,.1,0,.09,0h0l-.06,0-.14.06-.28.13-.6.3-1.28.65-2.91,1.49-6.85,3.55c-4.4,2.33-8.52,4.21-11.1,6.17a12.85,12.85,0,0,0-2.76,2.63,5,5,0,0,0-.67,1.22,2.24,2.24,0,0,1,.5-1.34,12.18,12.18,0,0,1,2.7-2.8c2.59-2.08,6.7-4,11.09-6.35,2.45-1.27,4.79-2.45,6.88-3.5l2.93-1.44,1.31-.62.61-.28.29-.13.15-.06.08,0h.11s0,0,.1,0a.16.16,0,0,1,.08.17l-.36,1,0-1.06c0-1.28.06-2.33.08-3.17A5.75,5.75,0,0,1,411.34,450.2Z" style="fill:#263238"></path><g style="opacity:0.30000000000000004"><path d="M369,266.32s9.76,5.27,28,7.35c26.13,3,43.86-10.72,43.86-10.72l-1.37-11.86L369,255.74Z"></path></g><path d="M442,139.84c8.88,12.39,5.13,42.81,5.13,42.81L443,246.15v7.52s.32,6.18-22.1,13.65-55.53-5.6-55.53-5.6,6.08-46.34,10.54-72.06q.87-5,1.76-9.41a94.91,94.91,0,0,1,24-46.42l.2-.22,27.21-6.41A58.79,58.79,0,0,1,442,139.84Z" style="fill:#6B84FF"></path><path d="M366.31,254.54s22.34,11,42.31,8.36A81,81,0,0,0,443,249.46v7s-15.81,13.21-37.59,13.2a112.78,112.78,0,0,1-40-7.91Z" style="fill:#e0e0e0"></path><polygon points="373.85 202.17 445.55 207.11 444.47 224.13 371.69 216.37 373.85 202.17" style="fill:#e0e0e0"></polygon><g style="opacity:0.30000000000000004"><path d="M368.18,240.89s6.37,4.79,20.6,2.2,36.86-5.82,41.82-10.13a25.8,25.8,0,0,0,8.47-17.68c.58-7.12-1-40.8-1-40.8l-23,41-45.59,16.17Z"></path></g><path d="M425.07,133.61c6.89,0,14.25,11.14,15,17.68s-1.9,59.29-3,65.29C434.92,228.66,425,230.8,425,230.8s-23.82,6.87-39.85,8.13a51.47,51.47,0,0,1-27.41-5.29l-3.89.25,1-20.06,4,.67,44-10.76s-2.81-45.09-2.56-45.84C400.27,157.9,402.53,133.62,425.07,133.61Z" style="fill:#455a64"></path><path d="M361.16,213.94a2.89,2.89,0,0,1,.6-.2l1.74-.47,6.45-1.65,21.32-5.26,11.5-2.86.13,0,.09.09c1,1,2,1.88,3,2.73a30,30,0,0,0,2.93,2.21,25.53,25.53,0,0,1,4.62,4,18.56,18.56,0,0,1,2.27,3.27c.21.41.36.73.46.95s.14.34.12.34-.25-.43-.72-1.21a19.89,19.89,0,0,0-2.35-3.15,26.62,26.62,0,0,0-4.63-3.85,30.35,30.35,0,0,1-3-2.2c-1-.85-2-1.76-3-2.72l.23.06-11.5,2.89L370,212l-6.49,1.49-1.77.38A2.86,2.86,0,0,1,361.16,213.94Z" style="fill:#263238"></path><path d="M422.94,132c-1.65-.21-27.55,9.67-30.68,37.92-1,8.78,0,28.15,11,31.25s33-6.42,33-6.42,10.24-37.11,7.93-43.79S432.42,133.17,422.94,132Z" style="fill:#455a64"></path><path d="M403.82,156.31a1.43,1.43,0,0,1,0,.49c0,.37,0,.83,0,1.38-.06,1.28-.14,3-.23,5.08-.19,4.28-.43,10.21-.56,16.75s-.13,12.48-.12,16.77v5.09c0,.55,0,1,0,1.38a2.49,2.49,0,0,1,0,.49,1.78,1.78,0,0,1-.07-.49c0-.37,0-.83-.07-1.38-.06-1.2-.12-2.93-.17-5.08-.1-4.29-.15-10.23,0-16.79s.42-12.48.71-16.76c.15-2.15.28-3.88.4-5.08,0-.54.1-1,.14-1.37A2.6,2.6,0,0,1,403.82,156.31Z" style="fill:#263238"></path><g style="opacity:0.30000000000000004"><path d="M397,182.51c-.34,10.57,5.64,21.27,5.64,21.27l1-44.5C399.27,162.9,397.3,173.76,397,182.51Z"></path></g><path d="M422.62,129.65c-12.71,2.55-25.31,13.26-33.52,26.66s-10.7,49.09-10.7,49.09l8.23.27s-3.49-20.16,5.34-45,30.72-29.27,30.72-29.27Z" style="fill:#e0e0e0"></path><path d="M440.07,151.29a2.39,2.39,0,0,1,.05.55c0,.42,0,.94,0,1.58,0,1.37,0,3.35,0,5.8-.08,4.89-.38,11.65-.81,19.1s-.78,14.2-.95,19.09c-.08,2.39-.14,4.35-.19,5.79,0,.63,0,1.15-.06,1.57a2.39,2.39,0,0,1-.05.55,1.84,1.84,0,0,1-.05-.55c0-.42,0-.94,0-1.57,0-1.37,0-3.35,0-5.8.07-4.9.37-11.65.8-19.11s.79-14.2,1-19.08c.08-2.39.14-4.35.18-5.79,0-.64.05-1.16.06-1.58A2,2,0,0,1,440.07,151.29Z" style="fill:#263238"></path><path d="M429.08,137.91a33.42,33.42,0,0,0-3.89-1.24,17.1,17.1,0,0,0-17.39,6.27,35.13,35.13,0,0,0-2.2,3.43,3.9,3.9,0,0,1,.38-1,14.5,14.5,0,0,1,1.52-2.61,16.72,16.72,0,0,1,17.78-6.41,14.62,14.62,0,0,1,2.84,1A3.93,3.93,0,0,1,429.08,137.91Z" style="fill:#263238"></path><polygon points="398.53 131.35 429.86 123.27 430.36 128.13 418.22 130.01 396.05 140.36 398.53 131.35" style="fill:#455a64"></polygon><path d="M422.82,131.35s20.26,3.82,23.64,19.94c0,0-1.22-8.68-5.75-13.16-9.12-9-18.09-8.48-18.09-8.48Z" style="fill:#e0e0e0"></path><path d="M422.56,129.22c.14,0,.31.56.39,1.32s0,1.37-.13,1.37-.32-.59-.39-1.32S422.41,129.24,422.56,129.22Z" style="fill:#263238"></path></g></svg>