<svg xmlns="http://www.w3.org/2000/svg" viewBox="0 0 500 500"><g id="freepik--background-complete--inject-19"><circle cx="393.81" cy="83.43" r="31.77" transform="translate(248.97 459.02) rotate(-80.87)" style="fill:#ebebeb"></circle><circle cx="395.26" cy="84.14" r="30.32" style="fill:#dbdbdb"></circle><circle cx="395.26" cy="84.14" r="28.4" style="fill:#fff"></circle><path d="M423,78.11C410.09,86,388.83,98.8,377,105.85a28.43,28.43,0,0,1-7.76-10.43L408.48,59A28.42,28.42,0,0,1,423,78.11Z" style="fill:#ebebeb;opacity:0.5"></path><path d="M423.64,85.13a28.25,28.25,0,0,1-1.87,9.23l-35.43,16.75a27.24,27.24,0,0,1-4.47-1.92C392.57,103,412.12,91.76,423.64,85.13Z" style="fill:#ebebeb;opacity:0.5"></path><rect x="394.99" y="57.8" width="0.55" height="4.3" style="fill:#c7c7c7"></rect><rect x="382.89" y="61.04" width="0.55" height="4.31" transform="translate(19.73 200.03) rotate(-30)" style="fill:#c7c7c7"></rect><rect x="374.04" y="69.89" width="0.55" height="4.31" transform="translate(124.74 360.17) rotate(-60)" style="fill:#c7c7c7"></rect><rect x="368.92" y="83.87" width="4.3" height="0.55" style="fill:#c7c7c7"></rect><rect x="372.16" y="95.96" width="4.31" height="0.55" transform="matrix(0.87, -0.5, 0.5, 0.87, 2.04, 200.08)" style="fill:#c7c7c7"></rect><rect x="381.02" y="104.81" width="4.3" height="0.55" transform="translate(100.73 384.54) rotate(-60.03)" style="fill:#c7c7c7"></rect><rect x="394.99" y="106.18" width="0.55" height="4.31" style="fill:#c7c7c7"></rect><rect x="407.08" y="102.94" width="0.55" height="4.3" transform="translate(2.03 217.76) rotate(-30)" style="fill:#c7c7c7"></rect><rect x="415.93" y="94.08" width="0.55" height="4.31" transform="translate(124.74 408.55) rotate(-60)" style="fill:#c7c7c7"></rect><rect x="417.3" y="83.87" width="4.3" height="0.55" style="fill:#c7c7c7"></rect><rect x="414.06" y="71.77" width="4.31" height="0.55" transform="translate(19.75 217.78) rotate(-30)" style="fill:#c7c7c7"></rect><rect x="405.2" y="62.92" width="4.31" height="0.55" transform="translate(149.11 384.51) rotate(-60.03)" style="fill:#c7c7c7"></rect><polygon points="395.68 59.75 396.61 86.06 393.92 86.03 394.94 59.74 395.68 59.75" style="fill:#c7c7c7"></polygon><polygon points="412.06 74.97 394.36 86.26 393.07 83.9 411.71 74.32 412.06 74.97" style="fill:#a6a6a6"></polygon><path d="M396.18,84.14a.92.92,0,1,1-.92-.92A.92.92,0,0,1,396.18,84.14Z" style="fill:#c7c7c7"></path><rect x="62.02" y="101.02" width="111.82" height="6.64" transform="translate(235.85 208.68) rotate(180)" style="fill:#ebebeb"></rect><rect x="158.71" y="107.66" width="6.64" height="21.96" style="fill:#ebebeb"></rect><rect x="158.71" y="107.66" width="6.64" height="6.79" style="fill:#dbdbdb"></rect><rect x="70.5" y="107.66" width="6.64" height="21.96" style="fill:#ebebeb"></rect><rect x="70.5" y="107.66" width="6.64" height="6.79" style="fill:#dbdbdb"></rect><rect x="119.09" y="74.54" width="42.32" height="10.66" transform="translate(220.11 -60.38) rotate(90)" style="fill:#c7c7c7"></rect><rect x="137.92" y="53.44" width="4.65" height="10.66" transform="translate(199.02 -81.48) rotate(90)" style="fill:#dbdbdb"></rect><rect x="139.38" y="62.59" width="1.73" height="10.66" transform="translate(208.16 -72.33) rotate(90)" style="fill:#dbdbdb"></rect><rect x="137.26" y="87.16" width="4.65" height="11.98" transform="translate(232.73 -46.43) rotate(90)" style="fill:#dbdbdb"></rect><rect x="106.51" y="72.62" width="49.36" height="7.45" transform="translate(207.54 -54.85) rotate(90)" style="fill:#dbdbdb"></rect><rect x="121.73" y="63.56" width="18.99" height="4.47" transform="translate(197.02 -65.43) rotate(90)" style="fill:#ebebeb"></rect><rect x="69.98" y="77.31" width="49.36" height="7.45" transform="translate(218.95 72.13) rotate(135.33)" style="fill:#c7c7c7"></rect><rect x="82.58" y="81.32" width="18.99" height="4.47" transform="translate(216.3 78.25) rotate(135.33)" style="fill:#dbdbdb"></rect><rect x="102.41" y="75.96" width="37.49" height="12.65" transform="translate(203.44 -38.87) rotate(90)" style="fill:#a6a6a6"></rect><rect x="119.41" y="88.99" width="3.49" height="12.65" transform="translate(216.46 -25.84) rotate(90)" style="fill:#c7c7c7"></rect><rect x="120.48" y="84.27" width="1.36" height="12.65" transform="translate(211.74 -30.56) rotate(90)" style="fill:#c7c7c7"></rect><rect x="132.32" y="79.05" width="35.24" height="8.74" transform="translate(233.36 -66.53) rotate(90)" style="fill:#a6a6a6"></rect><rect x="148.3" y="91.29" width="3.28" height="8.74" transform="translate(245.6 -54.29) rotate(90)" style="fill:#c7c7c7"></rect><rect x="148.3" y="70.33" width="3.28" height="8.74" transform="translate(224.64 -75.24) rotate(90)" style="fill:#c7c7c7"></rect><rect x="149.31" y="74.86" width="1.27" height="8.74" transform="translate(229.17 -70.71) rotate(90)" style="fill:#c7c7c7"></rect><path d="M223.81,104V51.66h52.38V104Zm2.47-49.91v47.44h47.44V54.13Z" style="fill:#c7c7c7"></path><rect x="243.62" y="65.7" width="16.4" height="36.98" transform="translate(336 -167.63) rotate(90)" style="fill:#ebebeb"></rect><rect x="234.43" y="129.08" width="12.39" height="35.78" transform="translate(481.25 293.95) rotate(180)" style="fill:#c7c7c7"></rect><rect x="236.78" y="190.09" width="15.56" height="26.04" transform="translate(41.45 447.67) rotate(-90)" style="fill:#ebebeb"></rect><path d="M223.81,171.41V119h52.38v52.38Zm2.47-49.91v47.44h47.44V121.5Z" style="fill:#c7c7c7"></path><path d="M223.81,238.77V186.39h52.38v52.38Zm2.47-49.91V236.3h47.44V188.86Z" style="fill:#c7c7c7"></path><rect x="240.53" y="68.38" width="18.95" height="18.95" transform="translate(327.85 -172.15) rotate(90)" style="fill:#c7c7c7"></rect><rect x="240.53" y="135.74" width="18.95" height="18.95" transform="translate(395.22 -104.78) rotate(90)" style="fill:#ebebeb"></rect><rect x="240.53" y="203.11" width="18.95" height="18.95" transform="translate(462.58 -37.42) rotate(90)" style="fill:#c7c7c7"></rect><path d="M72.59,325.06l-13.12.27-6.66.12c-2.23,0-4.47,0-6.7.05h-.44v-.44l-.06-11.19v-.51h.5l13.24.06c4.42,0,8.83.11,13.24.16h.28v.27c0,1.89-.09,3.78-.13,5.65Zm0,0-.14-5.66c0-1.86-.11-3.7-.13-5.53l.27.27c-4.41.05-8.82.16-13.24.16l-13.24.07.5-.5,0,11.19-.45-.45c2.18,0,4.36,0,6.55.05l6.58.12Z" style="fill:#ebebeb"></path><path d="M57.82,339.17l-13.12.27-6.66.12c-2.23,0-4.47,0-6.7.05H30.9v-.44L30.84,328v-.51h.5l13.24.06c4.41,0,8.83.11,13.24.16h.28V328c0,1.89-.08,3.78-.13,5.65Zm0,0-.14-5.66c0-1.86-.11-3.7-.13-5.53l.27.27c-4.41.05-8.83.16-13.24.16l-13.24.06.5-.49-.05,11.19-.45-.45c2.18,0,4.36,0,6.55,0l6.58.12Z" style="fill:#ebebeb"></path><path d="M338.6,158.62l-13.13.28-6.66.11c-2.22.05-4.46,0-6.69.06h-.44v-.45l-.05-11.19v-.5h.5l13.24.07c4.41,0,8.83.11,13.24.16h.28v.27c0,1.9-.08,3.79-.13,5.66Zm0,0-.14-5.65c0-1.86-.11-3.71-.13-5.54l.27.28c-4.41,0-8.83.15-13.24.16l-13.24.06.5-.5-.06,11.19-.44-.44c2.18,0,4.36,0,6.54,0l6.58.11Z" style="fill:#ebebeb"></path><path d="M323.83,172.73,310.7,173l-6.66.11c-2.22,0-4.46,0-6.69.06h-.45v-.45l0-11.19V161h.5l13.24.07c4.41,0,8.82.11,13.24.16h.27v.27c0,1.9-.09,3.79-.13,5.66Zm0,0-.14-5.65c-.05-1.86-.12-3.71-.14-5.54l.28.28c-4.42.05-8.83.15-13.24.16l-13.24.06.5-.5-.06,11.19-.44-.44c2.18,0,4.36,0,6.54.05l6.58.11Z" style="fill:#ebebeb"></path><path d="M309.11,158.62,296,158.9l-6.66.11c-2.23.05-4.46,0-6.7.06h-.44v-.45l-.06-11.19v-.5h.5l13.24.07c4.42,0,8.83.11,13.24.16h.28v.27c0,1.9-.09,3.79-.13,5.66Zm0,0L309,153c0-1.86-.11-3.71-.13-5.54l.27.28c-4.41,0-8.82.15-13.24.16l-13.24.06.5-.5-.05,11.19-.45-.44c2.19,0,4.36,0,6.55,0l6.58.11Z" style="fill:#ebebeb"></path><path d="M468.66,339.17l-13.13.27-6.66.12c-2.22,0-4.46,0-6.69.05h-.45v-.44L441.68,328v-.51h.5l13.24.06c4.41,0,8.83.11,13.24.16h.27V328c0,1.89-.08,3.78-.13,5.65Zm0,0-.14-5.66c0-1.86-.12-3.7-.13-5.53l.27.27c-4.41.05-8.83.16-13.24.16l-13.24.06.5-.49-.06,11.19-.44-.45c2.18,0,4.36,0,6.54,0l6.58.12Z" style="fill:#ebebeb"></path><path d="M453.89,65.49l-13.13.27-6.66.12c-2.22,0-4.46,0-6.69.05H427v-.45l0-11.19v-.51h.51l13.24.06c4.41,0,8.82.11,13.24.16h.27v.27c0,1.9-.09,3.78-.13,5.65Zm0,0-.14-5.66c-.05-1.86-.12-3.7-.14-5.53l.28.27c-4.42,0-8.83.16-13.24.16l-13.24.07.5-.5-.06,11.19-.44-.45c2.18,0,4.35,0,6.54.06l6.58.11Z" style="fill:#ebebeb"></path><path d="M468.66,79.6l-13.13.27-6.66.12c-2.22,0-4.46,0-6.69.05h-.45V79.6l-.05-11.19V67.9h.5l13.24.06c4.41,0,8.83.11,13.24.16h.27v.27c0,1.89-.08,3.78-.13,5.65Zm0,0-.14-5.66c0-1.86-.12-3.7-.13-5.53l.27.27c-4.41,0-8.83.16-13.24.16l-13.24.07.5-.5-.06,11.19-.44-.45c2.18,0,4.36,0,6.54.06l6.58.11Z" style="fill:#ebebeb"></path><path d="M72.59,65.49l-13.12.27-6.66.12c-2.23,0-4.47,0-6.7.05h-.44v-.45L45.61,54.3v-.51h.5l13.24.06c4.42,0,8.83.11,13.24.16h.28v.27c0,1.9-.09,3.78-.13,5.65Zm0,0-.14-5.66c0-1.86-.11-3.7-.13-5.53l.27.27c-4.41,0-8.82.16-13.24.16l-13.24.07.5-.5,0,11.19L46.11,65c2.18,0,4.36,0,6.55.06l6.58.11Z" style="fill:#ebebeb"></path></g><g id="freepik--Shadow--inject-19"><ellipse cx="249.95" cy="427.11" rx="211.79" ry="18.54" style="fill:#ebebeb"></ellipse></g><g id="freepik--Floor--inject-19"><polygon points="35.47 388.71 89.1 388.47 142.73 388.38 250 388.22 357.27 388.38 410.9 388.47 464.53 388.71 410.9 388.96 357.27 389.05 250 389.21 142.73 389.05 89.1 388.96 35.47 388.71" style="fill:#263238"></polygon></g><g id="freepik--character-1--inject-19"><polygon points="140.21 313.71 142.47 327.26 157.78 409.92 160.25 409.92 149.12 327.26 147.47 313.71 140.21 313.71" style="fill:#dbdbdb"></polygon><polygon points="147.47 313.71 140.21 313.71 142.47 327.26 149.12 327.26 147.47 313.71" style="fill:#a6a6a6"></polygon><polygon points="92.15 409.92 94.62 409.92 109.92 327.26 112.18 313.71 104.92 313.71 103.28 327.26 92.15 409.92" style="fill:#dbdbdb"></polygon><polygon points="104.92 313.71 103.28 327.26 109.92 327.26 112.18 313.71 104.92 313.71" style="fill:#a6a6a6"></polygon><polygon points="46.24 409.92 48.71 409.92 64.01 327.26 66.27 313.71 59.02 313.71 57.37 327.26 46.24 409.92" style="fill:#dbdbdb"></polygon><polygon points="57.37 327.26 64.01 327.26 66.27 313.71 59.02 313.71 57.37 327.26" style="fill:#a6a6a6"></polygon><polygon points="50.15 320.07 162.31 320.07 162.31 308.26 120.32 308.26 106.21 226.16 54.43 226.16 50.15 320.07" style="fill:#dbdbdb"></polygon><polygon points="50.15 320.07 56.27 320.07 60.25 226.16 54.43 226.16 50.15 320.07" style="fill:#a6a6a6"></polygon><path d="M166.53,424.4c-2.23.28-63.1-13.92-65.08-15.84-.24-.21,2.64-11.9,2.64-11.9,1-4.81,16.8-44.07,16.8-44.07l39.8,9.82L143.83,398.8s7.58,5.13,14.1,10c0,0,0,0,0,0a86.79,86.79,0,0,1,8.24,6.6C168.13,417.76,168.75,424.14,166.53,424.4Z" style="fill:#eb9481"></path><path d="M166.52,424.4c-2.22.28-63.09-13.92-65.07-15.84-.24-.21,2.64-11.9,2.64-11.9.32-1.58,2.24-6.89,4.69-13.31l38.08,8.88-3,6.57s7.59,5.14,14.11,10c0,0,0,0,0,0a84.42,84.42,0,0,1,8.25,6.6C168.13,417.77,168.75,424.14,166.52,424.4Z" style="fill:#ebebeb"></path><path d="M166.7,424.57c-2.3.24-63.67-13.51-65.67-15.52-.77-.74,4.67-20.51,4.7-20.63L145,397.1l-.16.67s19.73,15.13,21.7,17.56S169,424.34,166.7,424.57Z" style="fill:#455a64"></path><path d="M166.54,422c-10.29-2.57-52-12-62.38-13.74-.09,0-.1.05,0,.07,10.14,2.77,52,11.84,62.36,13.84C166.72,422.25,166.76,422.1,166.54,422Z" style="fill:#263238"></path><path d="M148,397.57c-3.9-1.67-9-2.16-12.78,0-.14.08,0,.29.12.28a58.34,58.34,0,0,1,12.53.19A.27.27,0,0,0,148,397.57Z" style="fill:#263238"></path><path d="M150.53,400c-3.9-1.67-9-2.16-12.78,0-.14.08,0,.29.12.28a58.34,58.34,0,0,1,12.53.19A.27.27,0,0,0,150.53,400Z" style="fill:#263238"></path><path d="M153.07,402.43c-3.9-1.67-9-2.17-12.78,0-.14.09,0,.29.12.28a59,59,0,0,1,12.53.2A.27.27,0,0,0,153.07,402.43Z" style="fill:#263238"></path><path d="M155.28,389.89c-1.11-2.55-4.31-2.23-6.33-1.19a22.28,22.28,0,0,0-8.36,7.91.11.11,0,0,0,.06.17c-.05.31.15.7.53.65,3.64-.49,7.59-.56,11-2.16C154.13,394.35,156.32,392.31,155.28,389.89Zm-8.74,5.67c-1.78.28-3.57.48-5.34.83a64.51,64.51,0,0,1,5-4.51,25.54,25.54,0,0,1,2.68-1.85c1.46-.83,6.78-2.09,5.06,2.21C153,394.61,148.67,395.22,146.54,395.56Z" style="fill:#263238"></path><path d="M130.48,393.23c3,2.18,6.91,3,10.4,4.12a.52.52,0,0,0,.63-.55.11.11,0,0,0,.1-.15,22.23,22.23,0,0,0-6.78-9.3c-1.79-1.4-4.88-2.29-6.44,0S128.71,392,130.48,393.23Zm-1.18-3.31c-.91-4.54,4.09-2.33,5.37-1.25A23.88,23.88,0,0,1,137,391a66.06,66.06,0,0,1,4.08,5.34c-1.68-.67-3.4-1.19-5.11-1.79C133.91,393.81,129.8,392.42,129.3,389.92Z" style="fill:#263238"></path><path d="M146.94,397.43l-42.46-9.5s35-81.23,31.92-85.34c-1.55-2.06-40.88-2.66-53.39-13.26-16.25-13.76-5.35-34.8-5.35-34.8l43.92-1.3s-.53,9.18,1.19,10.56c1.13.92,53.46,5.32,59.21,23C189,308.37,146.94,397.43,146.94,397.43Z" style="fill:#263238"></path><path d="M148.15,389.75c-1.12-.47-12.08-3.58-14.54-4.2-4.94-1.27-9.89-2.51-14.86-3.68-2.59-.61-8.14-1.93-8.47-1.9a.14.14,0,0,0,0,.27c4.84,1.51,9.74,2.83,14.63,4.16s21.71,5.44,23.17,5.61C148.2,390,148.31,389.82,148.15,389.75Z" style="fill:#37474f"></path><path d="M143.91,299a6.79,6.79,0,0,0-3.32-1l-19-3.19c-5.93-1-11.89-1.88-17.8-3-4.89-.94-9.86-2.21-14.09-4.86A20.4,20.4,0,0,1,81,275.55a36.42,36.42,0,0,1-1.12-14.47c.12-1.18.33-2.36.55-3.52a.07.07,0,0,0-.14,0c-1.6,9-1.75,19.43,5,26.6,3.29,3.5,7.8,5.55,12.41,6.88a141.75,141.75,0,0,0,16,3.1l19,3.18c3,.5,6.15.9,9.18,1.53a3.26,3.26,0,0,1,1.65.73,2.38,2.38,0,0,1,.27,2.2c-.31,1.5-.71,3-1.14,4.44-3.46,11.8-26.82,68.15-27.51,69.45-.07.13.15.24.22.11,5.82-10.36,22.74-53.88,26.59-65.05a71.15,71.15,0,0,0,2.49-8.69C144.71,300.94,144.84,299.74,143.91,299Z" style="fill:#37474f"></path><path d="M249.43,425.05c-2.13.72-63.05-.14-65.37-1.62-.9-.86-1.62-8.65-2.17-18.34l-10.48-41.56,39.19-.32,11.48,41.27s8.46,3.52,15.82,7l0,0a86.59,86.59,0,0,1,9.4,4.82C249.67,418.23,251.56,424.35,249.43,425.05Z" style="fill:#eb9481"></path><path d="M250.68,425.1c-2.2.73-65.09.42-67.48-1.11-.91-.56-1.4-9.72-1.68-20.79v-.35l40.57-.26,0,.69s24,10.87,26.47,12.83S252.88,424.38,250.68,425.1Z" style="fill:#455a64"></path><path d="M250,422.66c-10.6-.31-53.38-.57-63.89-.07-.08,0-.08.06,0,.07,10.5.53,53.29.44,63.89.17C250.2,422.83,250.2,422.66,250,422.66Z" style="fill:#263238"></path><path d="M226.61,402.73c-4.17-.8-9.27-.18-12.48,2.77-.12.11,0,.29.18.24a59.59,59.59,0,0,1,12.28-2.49A.26.26,0,0,0,226.61,402.73Z" style="fill:#263238"></path><path d="M229.61,404.55c-4.17-.79-9.27-.18-12.47,2.77-.13.12,0,.29.17.25a58.94,58.94,0,0,1,12.28-2.49A.27.27,0,0,0,229.61,404.55Z" style="fill:#263238"></path><path d="M232.61,406.38c-4.17-.8-9.27-.18-12.47,2.77-.13.12,0,.29.17.25a58.43,58.43,0,0,1,12.28-2.49A.27.27,0,0,0,232.61,406.38Z" style="fill:#263238"></path><path d="M232.08,393.67c-1.63-2.26-4.69-1.27-6.44.19a22.22,22.22,0,0,0-6.47,9.51.11.11,0,0,0,.1.15.51.51,0,0,0,.65.52c3.45-1.25,7.3-2.17,10.26-4.45C231.91,398.26,233.62,395.81,232.08,393.67Zm-7.32,7.4c-1.68.66-3.38,1.23-5,1.95,1.27-1.85,2.45-3.75,3.9-5.47a23.68,23.68,0,0,1,2.22-2.37c1.25-1.13,6.17-3.5,5.42,1.06C230.84,398.76,226.77,400.28,224.76,401.07Z" style="fill:#263238"></path><path d="M208.57,402.23c3.44,1.48,7.39,1.43,11,1.8.38,0,.57-.36.51-.67a.11.11,0,0,0,0-.17,22.16,22.16,0,0,0-8.61-7.63c-2.05-1-5.26-1.2-6.28,1.39S206.57,401.37,208.57,402.23Zm-1.86-3c-1.86-4.24,3.5-3.15,5-2.36a24,24,0,0,1,2.74,1.75c1.83,1.32,3.44,2.86,5.13,4.35-1.79-.29-3.58-.43-5.37-.66C212.05,402.06,207.73,401.59,206.71,399.25Z" style="fill:#263238"></path><path d="M225.92,403l-45.73,0s-19.58-77.66-23-82.09c-4.62-5.89-69.25-5.76-83.11-25-12.45-17.27-1.94-41.72-1.94-41.72L121,252.73a100.86,100.86,0,0,1-4.54,15.39S175.46,279,192,297C203.12,309.23,225.92,403,225.92,403Z" style="fill:#263238"></path><path d="M125,264.77a23.59,23.59,0,0,0-4.15,1.33c-1.4.53-2.79,1.14-4.14,1.8a83,83,0,0,0-7.74,4.37c-.08.05,0,.16.08.12,2.64-1.38,5.38-2.61,8.12-3.79l4-1.7a40.82,40.82,0,0,0,4-1.77C125.33,265,125.24,264.73,125,264.77Z" style="fill:#37474f"></path><path d="M122.11,252.7c-.56,2.23-1.06,4.48-1.69,6.69-.3,1-.59,2.05-1,3-.32.83-.82,1.78-1.78,2-1.11.21-1.42-.74-1.33-1.65s.36-2.05.56-3.05c.23-1.16.47-2.32.68-3.48.1-.58.21-1.16.31-1.74,0-.15.14-1.26.22-1.58,0,0,0,.05.06.05h0a.06.06,0,0,0,.06-.06c0-.09,0-.1,0-.17a.09.09,0,0,0-.1,0c-.22.11-.23.4-.3.62-.18.56-.36,1.13-.53,1.7-.31,1.06-.61,2.13-.88,3.2s-.53,2.15-.8,3.23a5.1,5.1,0,0,0-.22,2.48,1.88,1.88,0,0,0,1.76,1.42c0,.08-.09.15-.12.22-.1.22-.17.46-.25.68s-.16.46-.23.7a2,2,0,0,0-.06.34c0,.13,0,.26,0,.39a.19.19,0,0,0,.35.12c.06-.11.14-.2.21-.31a2.43,2.43,0,0,0,.16-.37c.07-.23.14-.45.19-.68s.13-.45.17-.68a2.71,2.71,0,0,0,0-.41,2.47,2.47,0,0,0,1.29-.49,4.28,4.28,0,0,0,1.34-2c.33-.93.59-1.89.86-2.84a42.94,42.94,0,0,0,1.42-7.19C122.53,252.53,122.17,252.44,122.11,252.7Z" style="fill:#37474f"></path><path d="M221.19,394.84a34.43,34.43,0,0,0-3.67-.23c-1.28-.06-2.57-.11-3.86-.15-2.53-.07-5.07-.12-7.6-.13-5.1,0-10.21,0-15.31.06-2.66.05-8.37.12-8.68.22a.13.13,0,0,0,0,.26c5.06.27,10.13.35,15.21.45s10.13.17,15.19.08c1.41,0,2.81-.07,4.21-.11a43.83,43.83,0,0,0,4.44-.19C221.3,395.08,221.36,394.86,221.19,394.84Z" style="fill:#37474f"></path><path d="M162.48,321.55a13.78,13.78,0,0,0-1.91-3.93,6.93,6.93,0,0,0-3.75-1.93c-12.19-3.34-24.77-4.84-37.17-7.18a151.89,151.89,0,0,1-18.09-4.41,70.13,70.13,0,0,1-17.12-7.7,19,19,0,0,1-6.29-6.65,28.49,28.49,0,0,1-3-8.3,50.65,50.65,0,0,1,0-20.08,46.16,46.16,0,0,1,1.26-4.89c0-.1-.13-.14-.16,0a48.91,48.91,0,0,0-2.76,19.95c.45,5.89,1.87,12.08,5.67,16.74a23.68,23.68,0,0,0,7,5.53,76.09,76.09,0,0,0,8.62,4.06,115.47,115.47,0,0,0,17.76,5.3c12.37,2.74,25,4.12,37.36,6.87,1.52.34,3,.7,4.56,1.09a15.53,15.53,0,0,1,4.49,1.45c1.46.91,2,2.73,2.53,4.25.63,1.68,20.51,69,21,70.65a.22.22,0,0,0,.42-.13C181.25,385.33,163.77,324.85,162.48,321.55Z" style="fill:#37474f"></path><path d="M158.87,323.34c-.47-1.47-.87-3-2.24-3.94s-20.94-3.51-23.14-3.85c-.1,0-.14.14,0,.16,1.89.31,20,3.55,21.58,4.09a3.58,3.58,0,0,1,1.76,1.14,7.69,7.69,0,0,1,1,2.45c.56,1.75,1.11,3.5,1.67,5.25,1.11,3.52,2.23,7,3.29,10.56,1.2,4,2.57,8.2,3.61,12.25.08.31.52.16.46-.14C165.48,343.71,159.45,325.17,158.87,323.34Z" style="fill:#37474f"></path><path d="M116.74,268.24a165.32,165.32,0,0,1,26.7,5.47A188.06,188.06,0,0,1,169.2,283c4.68,2.1,9.22,4.45,13.71,6.92.09.05,0,.18-.08.13a207.77,207.77,0,0,0-25.06-10.92,201.67,201.67,0,0,0-26.09-7.57c-5-1.08-10-1.92-15-2.76C116.31,268.78,116.4,268.2,116.74,268.24Z" style="fill:#37474f"></path><path d="M115.16,211.4c4.63,10.31,22.76,43.52,33.87,45.48,7.29,1.28,36.4-2.71,41.15-9.83,2.07-3.09-2.47-24-6.33-23s-27.16,5-30.07,4.3S128.32,203.7,120,197.85C105.71,187.78,112.66,205.84,115.16,211.4Z" style="fill:#eb9481"></path><path d="M175,222.93l1.87,31.53s-23,5.14-33,1.71c-12.21-4.16-30.19-41.85-32.66-48.05-4-10.17-3-16.34,2.73-14.86,2.21.56,5.12,2.29,8.69,5.41,3.74,3.25,25.2,24.36,32,28.34C158.3,229.24,175,222.93,175,222.93Z" style="fill:#6B84FF"></path><path d="M175,222.93l1.87,31.53s-23,5.14-33,1.71c-12.21-4.16-30.19-41.85-32.66-48.05-4-10.17-3-16.34,2.73-14.86,2.21.56,5.12,2.29,8.69,5.41,3.74,3.25,25.2,24.36,32,28.34C158.3,229.24,175,222.93,175,222.93Z" style="opacity:0.6000000000000001"></path><path d="M170.91,253.36c-.42-4.65-1.43-23.75-1.37-27.89,0-.28.19-.35.22-.05,1.59,13.9,1.15,23.33,1.33,27.91C171.09,253.45,170.92,253.48,170.91,253.36Z" style="fill:#263238"></path><path d="M167.07,256.2c-7.5,1.09-17.52,1.94-23.29,0-12.2-4.16-30.18-41.85-32.65-48.05-4-10.17-3-16.34,2.73-14.85a5.26,5.26,0,0,1,.53.15Z" style="opacity:0.6000000000000001"></path><path d="M130.49,263.67c-1.38,1.35-60.67,7.52-61,7.12-.78-1.07,10.3-56.71,34-75.88,4.18-3.38,11.16-2,14.32.07,1.58,1,6,9,7.2,16.11S131.36,262.82,130.49,263.67Z" style="fill:#ebebeb"></path><path d="M105.11,193.52s6.47,33.62,6.68,35-.73,38.8-.73,38.8l-44,5.44s5-18.59,5.24-19.48,9.59-31.73,19.61-45.56C101.1,195,105.11,193.52,105.11,193.52Z" style="fill:#6B84FF"></path><path d="M105.11,193.52s6.47,33.62,6.68,35-.73,38.8-.73,38.8l-44,5.44s5-18.59,5.24-19.48,9.59-31.73,19.61-45.56C101.1,195,105.11,193.52,105.11,193.52Z" style="opacity:0.6000000000000001"></path><path d="M118.79,195.48s4.44,29.82,4.57,31.7,3.49,38.15,3.49,38.15l5.43-2s-3-23.61-3.39-25.66-2.88-24-3.83-28.11C123.55,203,118.79,195.48,118.79,195.48Z" style="fill:#6B84FF"></path><path d="M118.79,195.48s4.44,29.82,4.57,31.7,3.49,38.15,3.49,38.15l5.43-2s-3-23.61-3.39-25.66-2.88-24-3.83-28.11C123.55,203,118.79,195.48,118.79,195.48Z" style="opacity:0.6000000000000001"></path><polygon points="172.63 253.94 136.09 257.67 148.37 209.05 184.9 205.33 172.63 253.94" style="fill:#ebebeb"></polygon><path d="M186.47,213.91c2.06,3.9,7,8.66,7.54,11.9a3.74,3.74,0,0,1-1.92,4.05s3.31,1.49,3.3,4.51c0,1.55-2.49,2.91-2.49,2.91a4.47,4.47,0,0,1,2.43,4c-.14,2.13-2.61,3.17-2.61,3.17s1.92,2.42,1.08,4.55c-1.7,4.33-20.08,5.08-23.19-1.57-1.45-3.1,3-3,3-3s-6.45-1.65-6.7-5.44,5.58-3.35,5.58-3.35-6.23-1.65-6.09-5.6c.14-4.11,5.9-2.68,5.9-2.68s-4.2-2.6-3.4-5.6c1.31-5,9.3.88,13.3-.24l1.95-6.75Z" style="fill:#eb9481"></path><path d="M190.39,219.54c-1.62-3.87,3.05-8.92,2-12.84-1.38-5.31-7.19.19-8.22,8l.28,6.22Z" style="fill:#eb9481"></path><path d="M192.36,244.66a.05.05,0,0,1,0,.1,31.88,31.88,0,0,1-19-.36c-.19-.07-.16-.41.06-.38A65,65,0,0,0,192.36,244.66Z" style="fill:#263238"></path><path d="M193,237.31c.07,0,.09.11,0,.13-6.18,1.74-14.18,1.58-20.68-1.67-.22-.11-.31-.44,0-.33C176.78,237.28,187.1,238.06,193,237.31Z" style="fill:#263238"></path><path d="M172,226.93c6.36,2.87,13,3.43,19.89,3,.09,0,.09.12,0,.14-3.32,1.12-7.74.93-11.17.48a18.36,18.36,0,0,1-8.83-3.42C171.75,227.07,171.82,226.86,172,226.93Z" style="fill:#263238"></path><path d="M91.6,206c-17.67,19.95-37.47,53.49-28.76,60.51,8,6.41,36.67-.1,54.69-7.37,3.43-1.39-4.54-32-8.35-30.95-6.58,1.82-17,6.25-17.42,6.38-1,.28,3.76-11.62,9.59-26.06C107.86,192.41,101.71,194.58,91.6,206Z" style="fill:#eb9481"></path><path d="M147.62,227.32a4.65,4.65,0,0,1-2.44,3.69,6.55,6.55,0,0,1,2.39,3.75c.47,2.65-3.48,4.55-3.48,4.55a8.07,8.07,0,0,1,1.9,4.35c.19,2.58-3.52,5.06-3.52,5.06a7.08,7.08,0,0,1-.74,4.88c-2.37,3.87-25.23,6.84-28.32,7.11L107.9,228.8s19.45-9.72,24.65-9.1C136.93,220.23,148,222.62,147.62,227.32Z" style="fill:#eb9481"></path><path d="M145.11,230.91c-4.52-1.68-9.43-2.27-14.17-2.79a.09.09,0,0,0,0,.17c4.73.46,9.44,2.19,14.14,2.84A.11.11,0,0,0,145.11,230.91Z" style="fill:#263238"></path><path d="M144,238.94a12.3,12.3,0,0,0-3.26-.42c-1.16-.07-2.33-.12-3.49-.15-2.33-.06-4.66-.07-7,0-.11,0-.13.16,0,.16,2.32.06,4.65.16,7,.33q1.74.12,3.48.27a15.11,15.11,0,0,0,3.29.13A.17.17,0,0,0,144,238.94Z" style="fill:#263238"></path><path d="M142.37,248.72a8.59,8.59,0,0,0-3-.22l-3.19,0c-2.13,0-4.25-.07-6.37-.18-.11,0-.12.16,0,.17,2.16.12,4.31.27,6.47.37l3.17.14a8.22,8.22,0,0,0,2.89-.14S142.41,248.73,142.37,248.72Z" style="fill:#263238"></path><path d="M100.31,197.19c-12.85,7.93-45.92,54.61-39.84,67.45s47.55-1.3,47.55-1.3l-3.67-34.87s-10.9,6.13-11.26,5.58,6-16.48,8.58-23S107.15,193,100.31,197.19Z" style="fill:#6B84FF"></path><path d="M100.31,197.19c-12.85,7.93-45.92,54.61-39.84,67.45s47.55-1.3,47.55-1.3l-3.67-34.87s-10.9,6.13-11.26,5.58,6-16.48,8.58-23S107.15,193,100.31,197.19Z" style="opacity:0.6000000000000001"></path><path d="M102.77,261.37c-.77-4.61-3.22-23.57-3.48-27.71,0-.28.16-.36.22-.07,2.63,13.75,2.92,23.18,3.44,27.74C103,261.44,102.79,261.48,102.77,261.37Z" style="fill:#263238"></path><path d="M104.1,228.5a26.49,26.49,0,0,0-3.51,1.61c-1,.52-2,1-3.06,1.56-2.21,1.15-4.4,2.35-6.57,3.56s-4.34,2.45-6.48,3.72-4.2,2.66-6.34,3.93c-.1.06,0,.2.1.14,2.17-1.23,4.43-2.32,6.63-3.5L91.35,236c2.15-1.15,4.32-2.29,6.47-3.45l3.16-1.72a28.46,28.46,0,0,0,3.34-1.94A.25.25,0,0,0,104.1,228.5Z" style="fill:#263238"></path><path d="M100.44,218.49c-.67.85-1.33,1.71-2,2.6-.12.17-.22.34-.34.5.17-.45.34-.91.52-1.37a46.4,46.4,0,0,0,1.72-4.84c0-.07-.09-.11-.13,0a51.08,51.08,0,0,0-2.18,4.9c-.68,1.61-1.37,3.21-2,4.83s-1.32,3.23-1.94,4.86a36,36,0,0,0-1.66,4.88.09.09,0,0,0,.16.06A35.18,35.18,0,0,0,94.86,230c.67-1.61,1.3-3.25,2-4.87.27-.68.53-1.36.78-2,.12-.15.23-.31.34-.46.31-.42.6-.86.89-1.31.58-.91,1.13-1.85,1.67-2.79C100.51,218.49,100.46,218.46,100.44,218.49Z" style="fill:#263238"></path><path d="M108.1,262.57c0-.23-.15-.28-.19,0s0,.39-.06.53c-1.41.38-6.57,1.95-7.83,2.33-2.65.78-5.31,1.47-8,2.07s-5.42,1.11-8.15,1.54-5.47.87-8.22,1.05c-.11,0-.1.17,0,.17,2.8-.15,5.59-.23,8.38-.55s5.45-.77,8.14-1.33,5.46-1.28,8.14-2.09c1.34-.41,2.67-.86,4-1.32a19.73,19.73,0,0,0,3.72-1.51.28.28,0,0,0,.14-.26Z" style="fill:#263238"></path><path d="M116,204.41c-3.42.74-9.18-4.55-11.42-8.8-.15-.29,1.25-11.82,1.28-14.14,0-.47,14.47,3.77,14.47,3.77a36.79,36.79,0,0,0-1.55,8.86C118.78,194.44,119.3,203.68,116,204.41Z" style="fill:#eb9481"></path><path d="M120.34,185.24h0c0,.07-.11.35-.23.8-.21.78-.54,2-.81,3.48a27.32,27.32,0,0,0-.51,4.57c0,.11,0,.22,0,.32v.05c0,.19,0,.44,0,.74a9.18,9.18,0,0,1-1.42.06c-7.9-.31-10.4-10.06-11.07-13.8l.25.05c.38.06.88.18,1.49.32l.46.12c1,.24,2.11.55,3.31.86l1.19.33,2.53.71,1,.29c.36.09.71.2,1,.29l.47.13.23.07,1.19.35.58.16.24.08h0Z" style="fill:#263238"></path><path d="M105,164.16c-2,5-.56,20,2.81,23.65,4.89,5.24,13.51,6.43,18.13.42,4.47-5.82,2.24-25.39-1.58-28.74C118.75,154.56,108,156.79,105,164.16Z" style="fill:#eb9481"></path><path d="M118.77,174.07s-.08.06-.07.1c.15,1,.16,2.19-.71,2.63,0,0,0,.07,0,.06C119.1,176.57,119.08,175,118.77,174.07Z" style="fill:#263238"></path><path d="M117.74,173.12c-1.64.07-1.38,3.35.14,3.29S119.11,173.06,117.74,173.12Z" style="fill:#263238"></path><path d="M124.66,173.76s.08,0,.08.08c.05,1,.28,2.18,1.23,2.44a0,0,0,0,1,0,.06C124.83,176.27,124.54,174.73,124.66,173.76Z" style="fill:#263238"></path><path d="M125.48,172.63c1.62-.26,2,3,.51,3.24S124.12,172.84,125.48,172.63Z" style="fill:#263238"></path><path d="M116.32,171.73c.44-.15.82-.36,1.24-.55a2.24,2.24,0,0,0,1.15-.8.71.71,0,0,0-.18-.83,1.71,1.71,0,0,0-1.75,0,2.56,2.56,0,0,0-1.36,1.21A.74.74,0,0,0,116.32,171.73Z" style="fill:#a6a6a6"></path><path d="M126.61,170.88a12,12,0,0,1-1.33-.24,2.2,2.2,0,0,1-1.31-.49.72.72,0,0,1,0-.85,1.74,1.74,0,0,1,1.69-.46,2.5,2.5,0,0,1,1.62.84A.75.75,0,0,1,126.61,170.88Z" style="fill:#a6a6a6"></path><path d="M118.59,183.57c.26.22.53.52.9.53a2.7,2.7,0,0,0,1.07-.35s.07,0,0,.05a1.39,1.39,0,0,1-1.24.66,1.09,1.09,0,0,1-.87-.84C118.48,183.56,118.55,183.54,118.59,183.57Z" style="fill:#263238"></path><path d="M119.41,180.44a3.45,3.45,0,0,0,2.43,1.35,4.37,4.37,0,0,0,1.25,0,1,1,0,0,0,.24-.05,1,1,0,0,0,.22,0,.25.25,0,0,0,.18-.24h0a.3.3,0,0,0,0-.1h0v-.09c0-.78-.21-2-.21-2,.3.12,1.81.65,1.75.25a52.08,52.08,0,0,0-2.19-10.36.09.09,0,0,0-.18,0c.33,3.26,1.23,6.43,1.61,9.69a6.09,6.09,0,0,0-1.67-.37c-.11,0,.37,2.28.36,2.64v0a4.83,4.83,0,0,1-3.67-.83C119.42,180.29,119.34,180.37,119.41,180.44Z" style="fill:#263238"></path><path d="M122.6,181.39a4.18,4.18,0,0,1-1.54,1.41,1.92,1.92,0,0,1-1.12.16c-.82-.15-.9-.89-.81-1.54a4.56,4.56,0,0,1,.29-1A5.27,5.27,0,0,0,122.6,181.39Z" style="fill:#263238"></path><path d="M121.06,182.8a1.92,1.92,0,0,1-1.12.16c-.82-.15-.9-.89-.81-1.54A1.91,1.91,0,0,1,121.06,182.8Z" style="fill:#ff9abb"></path><g style="opacity:0.2"><path d="M120.65,167.09a10.36,10.36,0,0,0,1.67,0c.56,0,1.11-.19,1.68-.22a9.06,9.06,0,0,1,3.14.54c.09,0,.08.09,0,.06a8,8,0,0,0-3.33-.32,9.78,9.78,0,0,1-2.75.17,10,10,0,0,0-6.11.88s0,0,0,0A10,10,0,0,1,120.65,167.09Z"></path><path d="M120.56,165.6a11.86,11.86,0,0,0,1.58.05c.53,0,1-.19,1.59-.22a8.82,8.82,0,0,1,3,.52c.08,0,.07.08,0,.06a7.53,7.53,0,0,0-3.16-.3,9.51,9.51,0,0,1-2.61.15,9.42,9.42,0,0,0-5.78.84s0,0,0,0A9.55,9.55,0,0,1,120.56,165.6Z"></path></g><path d="M126.67,165.5c-5.14,3.61-12.3-1.68-12.3-1.68a5.64,5.64,0,0,1-5.68,3.62s-.92,8.78-3.24,8.78c-3.52,0-4.74-11.92-3.65-14.28s4.07-3,4.07-3a5.74,5.74,0,0,1,2.36-3.51c2.39-1.87,10.72.52,10.72.52a7.79,7.79,0,0,1,2.1-2.89,2.18,2.18,0,0,1,3.14.25,5.21,5.21,0,0,0-.82,2.17c-.39,2.57,1.71,2.55,1.66.22a3.64,3.64,0,0,0-.84-2.39c1-1.53,2.71-2,3.74-1.24C129.81,153.54,131,162.51,126.67,165.5Z" style="fill:#a6a6a6"></path><path d="M116.74,180.3a4.72,4.72,0,1,1,4.83-5.67h0a4.7,4.7,0,0,1-4.83,5.67Zm.39-8.8a4.35,4.35,0,0,0-1,.08,4.09,4.09,0,1,0,1-.08Z" style="fill:#455a64"></path><path d="M127.53,179.47c-1.8-.09-3.35-2-3.53-4.46a5.59,5.59,0,0,1,.76-3.36,2.94,2.94,0,0,1,5-.36A5.65,5.65,0,0,1,131,174.5c.18,2.6-1.24,4.82-3.17,5Zm-.08-8.79a1,1,0,0,0-.24,0,2.5,2.5,0,0,0-1.92,1.3,5.07,5.07,0,0,0-.66,3c.16,2.25,1.58,4,3.17,3.87s2.74-2,2.58-4.28a5,5,0,0,0-1.09-2.86A2.58,2.58,0,0,0,127.45,170.68Z" style="fill:#455a64"></path><path d="M121.45,175.19l-.44-.46c.67-.65,2.27-1.57,3.5-.43l-.42.47C123,173.74,121.51,175.13,121.45,175.19Z" style="fill:#455a64"></path><path d="M100.57,177.9l-.58-.24c.12-.27,1.17-2.65,2.56-3s9.79-.12,10.15-.12v.63c-2.44-.05-9-.14-10,.1S100.85,177.25,100.57,177.9Z" style="fill:#455a64"></path><path d="M107.3,176.5s-3-5-5.3-4-.19,8.17,2.31,9.29a2.61,2.61,0,0,0,3.58-1.17Z" style="fill:#eb9481"></path><path d="M102.64,174.57s0,.05,0,.06c1.75.84,2.59,2.57,3.14,4.33a1.45,1.45,0,0,0-2.13-.53s0,.11,0,.1a1.61,1.61,0,0,1,1.73.67,7.91,7.91,0,0,1,.75,1.48c.07.17.37.1.32-.09v0C106.65,178.27,105.08,175,102.64,174.57Z" style="fill:#263238"></path><path d="M118.86,195.32,115.39,204,104.66,193l-3,3.51s10.5,17.37,10.57,16.58l3.56-7.44,5.14,5.18-.42-13Z" style="fill:#ebebeb"></path><path d="M121,204.41c-.14-2.15-.22-4.31-.46-6.45,0-.07-.12-.11-.14,0-.43,2.07.15,10.27.14,12.24l0,0c-.21-.23-4.76-4.56-4.8-4.49-.77,1.18-3.39,6.6-3.57,7.09-1.66-2.76-8-12.78-10-15.39-.06-.08-.18,0-.13.07,1.46,2.92,9.88,16.42,10,16.38A83.64,83.64,0,0,0,115.8,206c.77,1,5.36,5.84,5.37,5.52A66.54,66.54,0,0,0,121,204.41Z" style="fill:#263238"></path></g><g id="freepik--Table--inject-19"><rect x="256.18" y="268.25" width="70.28" height="157.25" style="fill:#6B84FF"></rect><rect x="256.18" y="268.25" width="70.28" height="157.25" style="opacity:0.30000000000000004"></rect><rect x="57.5" y="268.25" width="70.28" height="157.25" style="fill:#6B84FF"></rect><rect x="127.78" y="268.25" width="198.68" height="21.84" style="fill:#6B84FF"></rect><rect x="127.78" y="268.25" width="198.68" height="21.84" style="opacity:0.2"></rect><polygon points="128.23 279.17 153.01 278.98 177.78 278.92 227.34 278.79 276.9 278.92 301.68 278.98 326.46 279.17 301.68 279.35 276.9 279.42 227.34 279.54 177.78 279.42 153.01 279.35 128.23 279.17" style="opacity:0.1"></polygon><rect x="127.78" y="268.25" width="9.45" height="157.25" style="fill:#6B84FF"></rect><rect x="127.78" y="268.25" width="9.45" height="157.25" style="opacity:0.2"></rect><rect x="317.01" y="268.25" width="9.45" height="157.25" style="fill:#6B84FF"></rect><rect x="317.01" y="268.25" width="9.45" height="157.25" style="opacity:0.2"></rect></g><g id="freepik--Device--inject-19"><rect x="163.64" y="265.67" width="57.52" height="2.58" style="fill:#455a64"></rect><rect x="192.21" y="265.67" width="28.95" height="2.58" style="fill:#263238"></rect><polygon points="195.33 268.25 251.38 268.25 258.71 230.18 202.66 230.18 195.33 268.25" style="fill:#455a64"></polygon><path d="M223.61,249.21a3.07,3.07,0,0,0,3.11,3.41,3.79,3.79,0,0,0,3.71-3.41,3.08,3.08,0,0,0-3.11-3.41A3.79,3.79,0,0,0,223.61,249.21Z" style="fill:#263238"></path></g><g id="freepik--character-2--inject-19"><polygon points="364.65 313.71 362.39 327.26 347.08 409.92 344.62 409.92 355.75 327.26 357.39 313.71 364.65 313.71" style="fill:#dbdbdb"></polygon><polygon points="357.39 313.71 364.65 313.71 362.39 327.26 355.75 327.26 357.39 313.71" style="fill:#a6a6a6"></polygon><polygon points="412.71 409.92 410.25 409.92 394.94 327.26 392.68 313.71 399.94 313.71 401.58 327.26 412.71 409.92" style="fill:#dbdbdb"></polygon><polygon points="399.94 313.71 401.58 327.26 394.94 327.26 392.68 313.71 399.94 313.71" style="fill:#a6a6a6"></polygon><polygon points="458.62 409.92 456.16 409.92 440.85 327.26 438.59 313.71 445.85 313.71 447.49 327.26 458.62 409.92" style="fill:#dbdbdb"></polygon><polygon points="447.49 327.26 440.85 327.26 438.59 313.71 445.85 313.71 447.49 327.26" style="fill:#a6a6a6"></polygon><polygon points="454.71 320.07 342.56 320.07 342.56 308.26 384.54 308.26 398.65 226.16 450.43 226.16 454.71 320.07" style="fill:#dbdbdb"></polygon><polygon points="454.71 320.07 448.6 320.07 444.61 226.16 450.43 226.16 454.71 320.07" style="fill:#a6a6a6"></polygon><path d="M274.54,398.42c2.07,1.21,65.84,14.55,68.59,13.52,1.05-.39,3.53-9.56,6.22-20.73.58-2.42,1.16-4.91,1.74-7.45,3.78-16.46,7.41-34,7.41-34l-42.63-9L309.63,375l-1.37,7.52s-26.7,5.82-29.6,7.27S272.46,397.21,274.54,398.42Z" style="fill:#d3766a"></path><path d="M348.31,395.47c-2.27,9.16-4.27,16.13-5.18,16.47-2.75,1-66.53-12.31-68.6-13.52s1.24-7.2,4.12-8.66c1.79-.89,12.64-3.45,20.69-5.28-7,1.68-20.15,6.45,7,8.41C328.75,394.52,343.55,395.26,348.31,395.47Z" style="fill:#263238"></path><path d="M332.09,431c2.31.64,67.38-2.72,69.78-4.41.91-.64-1.59-26.76-2.27-29.28-2.31-8.51-13.3-34.14-13.3-34.14l-43.54,2.12L360.64,407s-24.33,12.43-26.77,14.57S329.78,430.4,332.09,431Z" style="fill:#d3766a"></path><path d="M401.87,426.62c-2.4,1.7-67.46,5.06-69.78,4.42s-.64-7.29,1.78-9.43c1.14-1,7-4.22,13-7.38-7.48,4.21-19.32,13.6,54.34-3.14C401.86,418.54,402.36,426.28,401.87,426.62Z" style="fill:#263238"></path><path d="M433,302.35c-13,14.45-56.54,3-59.14,8.79-2.3,5.07,27.44,86.49,27.44,86.49l-47.58,5.13s-41.08-89.92-26.4-115.9c7.93-14,42.88-8.44,64-11,6.36-.77,9.35-13.89,9.35-13.89h37.68S447.85,285.84,433,302.35Z" style="fill:#37474f"></path><path d="M340.58,278.81l40,30.57c13.27-.28,42.31,4.32,52.49-7,14.83-16.51,5.32-40.39,5.32-40.39H400.67s-3,13.12-9.35,13.89C376.52,277.65,354.91,275.44,340.58,278.81Z" style="fill:#263238"></path><path d="M351.93,392.15c1.31-.41,13.65-1.79,16.37-2.08,5.45-.59,22.59-2.2,25.7-2.19a.08.08,0,0,1,0,.15c-2.7.56-13.65,1.84-16.37,2.12-5.45.56-24.18,2.38-25.7,2.23A.12.12,0,0,1,351.93,392.15Z" style="fill:#263238"></path><path d="M368.12,306.37c3.06-1.52,26.25-.77,42.89-2.33,5.42-.5,10.86-1.66,15-5.21a24.78,24.78,0,0,0,7.41-12.2c1.6-5.69,1.44-11.62,1.16-17.44-.06-1.43-.16-2.87-.25-4.3,0-.08.14-.1.15,0,1.26,10.43,2.23,22.08-4.55,31.12a21.75,21.75,0,0,1-12.13,8c-10,2.64-47.77,2-49.1,3-1.59,1.22,22.81,75.48,23.29,76.9.09.26-.38.44-.49.18C389.09,378.34,365.45,307.7,368.12,306.37Z" style="fill:#263238"></path><path d="M325.65,289.37c2.24-5.69,7.36-9.24,14.89-10.6.12,0,.11.17,0,.2-6.57,1.92-11.26,4.56-13.85,10.11-1.2,2.59-1.83,6.22-2.14,11.1-1.56,24.31,19.66,79.51,20.09,80.47a.07.07,0,1,1-.13.07C341.51,375.69,316.39,312.88,325.65,289.37Z" style="fill:#263238"></path><path d="M308.45,372.79l36,7.66s-28.42-84.83-15.07-95.78c3.7-3,11.77-4.09,21.36.05,14.31,6.18,30.88,18.79,46.5,23.4,14.63,4.32,32,.35,38-6.23,12.56-13.82,3.11-39.94,3.11-39.94L386.53,260s.78.63-1.7,2.83c0,0-30.45-6.91-43.69,1.18C317.28,278.59,308.45,372.79,308.45,372.79Z" style="fill:#37474f"></path><path d="M416,265a.09.09,0,0,1,.18,0,29.77,29.77,0,0,0,.45,5.81,10,10,0,0,0,2.61,4.82c2.84,2.88,6.91,3.86,10.64,5,.19.06.16.41-.06.37-4.13-.63-8.48-1.68-11.5-4.78a9.94,9.94,0,0,1-2.67-5.2A12.4,12.4,0,0,1,416,265Z" style="fill:#263238"></path><path d="M330.29,283.05c5.54-3.47,14.2-.83,18.35.76a.07.07,0,0,1-.05.14c-3.81-1.37-13.3-3.45-18.37.14-11.72,8.31,4,65.1,14.25,96.36.16.49-.22.36-.44-.11-1.7-3.7-15-43.2-18.42-69.33C325.08,307,322.31,288.07,330.29,283.05Z" style="fill:#263238"></path><path d="M312.55,363.21c1.09,0,10.43,2,12.48,2.49,4.12.93,13.66,3.4,15.88,4.25.06,0,0,.14,0,.14-2.14-.2-7.11-1.3-9.16-1.77-4.11-1-18.19-4.34-19.22-4.89C312.4,363.38,312.45,363.21,312.55,363.21Z" style="fill:#263238"></path><path d="M332.06,281.58c3.72-2,8.16-2.37,12.3-1.86a43.25,43.25,0,0,1,12.57,3.93c8.43,3.86,16.45,8.56,24.89,12.4s17.35,6.79,26.6,7.07c7.9.25,17.91-1.14,23-8.25,7.83-11,3.27-29.85,3.18-31.07,0-.09.12-.09.14,0,6.08,23.22-1.74,32.24-7,36-4.18,3-10.2,3.77-14.18,4.1-9.2.78-18.42-1.47-26.94-4.87-8.74-3.48-16.94-8.16-25.31-12.45-8-4.1-17-8.34-26.14-6a21.92,21.92,0,0,0-3.05,1S332,281.61,332.06,281.58Z" style="fill:#263238"></path><path d="M386.74,200.52c-.14,11.65-.08,23.63,1.57,35.18,1.29,9,5.41,16.26,14.89,18.07,8.8,1.67,21.2,1,28.31-5.12,3.32-2.84,4.35-6.69,3.93-10.94-.57-5.9-6.68-38.1-8.52-48.15-1.11-6.12-2.21-12.32-4.4-18.18-4.6-12.31-10.77-11.93-11.63-12.15-.76-.44-5.6-2.34-12.24.1a13.2,13.2,0,0,0-7.71,7.48C386.53,177,386.87,189.61,386.74,200.52Z" style="fill:#263238"></path><path d="M412.89,160.88c7.58,3.14,9.7,11.18,11.82,18.37,2.94,10,5.72,20.06,8,30.25,1.1,4.89,2.09,9.81,2.93,14.76.8,4.73,2,9.77,1.85,14.59-.19,8-7.3,11.91-14.3,13.35a.27.27,0,0,1-.13-.53c4-1,8-2.26,10.89-5.37,3.66-4,3-9,2.33-13.89-1.14-8.42-2.76-16.76-4.67-25s-4.13-16.5-6.47-24.67c-2.23-7.77-4.05-18.06-12.29-21.71A.06.06,0,1,1,412.89,160.88Z" style="fill:#263238"></path><path d="M387.9,175.45c1.14-6.14,4-12.2,10.36-14.24,0,0,0,0,0,0-8.16,3-9.78,12.12-10.55,19.71q-1.22,12-1.54,24.05c-.22,7.73-.27,15.51.22,23.22.52,8.33,2.37,16.07,7.6,22.73a.14.14,0,0,1-.21.18c-5.09-5.34-7-12.93-7.73-20.08a216.52,216.52,0,0,1-.4-28.48C386,193.59,386.25,184.29,387.9,175.45Z" style="fill:#263238"></path><path d="M405.58,211.9c-11.46,14.1-27.15,27.42-33.72,27.2-5.3-.17-37-19.21-39.26-22.1-1.93-2.49,13-21.72,16.09-20.4,5.19,2.22,23.63,17.48,25.2,17.24s14.49-5.86,27.35-11.91C413.54,196.14,413.55,202.11,405.58,211.9Z" style="fill:#d3766a"></path><path d="M336.11,219.64c-2.54-1.44-13.63-9-16.25-11.85s-9.55-11.43-7.6-13.65,4.18.14,4.18.14-2.35-4.1-.19-6.16,5.52,1.73,5.52,1.73-2.11-4.39.19-6.28,5,2.47,5,2.47-2.11-3.92.44-4.69c3.08-.91,6.16,6.76,9.27,9.65.71.65,15.3,12.25,15.3,12.25Z" style="fill:#d3766a"></path><path d="M326.76,185.67c2.28,5.64,4.25,7.72,9.11,11.22.09.07,0,.22-.09.16-5.07-3-7.92-5.24-9.3-11.28C326.41,185.47,326.65,185.41,326.76,185.67Z" style="fill:#263238"></path><path d="M321.59,189.4c2.88,5.65,5,7.92,9.82,12,.07.06,0,.18-.09.13-5.06-3.57-7.86-5.87-10-11.9C321.23,189.32,321.46,189.14,321.59,189.4Z" style="fill:#263238"></path><path d="M316.69,194.48c3.18,5.27,5.4,7.86,10.58,11.18a.11.11,0,1,1-.11.19c-5.61-2.87-8.4-6.07-10.62-11.26C316.39,194.24,316.49,194.15,316.69,194.48Z" style="fill:#263238"></path><path d="M356.84,203.22s-2.45-7.22-4.23-10.15-12.42-11.42-14.39-9.23c-2.53,2.84,2.65,8.95,5.58,11.61,0,0-5.88,6.55-3.11,11.74S356.84,203.22,356.84,203.22Z" style="fill:#d3766a"></path><path d="M337.78,184.85c-.45,4.25,3.62,7.5,6.27,10.29a.36.36,0,0,1-.09.58c-2.28,2.91-4.65,7.67-3.5,11.4a.09.09,0,0,1-.17.07c-1.77-3.83.18-8.71,2.88-11.74-2.77-2.82-6.7-6.25-5.43-10.61C337.75,184.82,337.78,184.82,337.78,184.85Z" style="fill:#263238"></path><path d="M359.37,202.61,339.67,227s26.17,14.06,33,12.78,15.25-7.2,32.21-26.64c13.43-15.39,2.81-15.52-5.57-11.32-6.84,3.43-24.21,11.27-25.59,10.66S359.37,202.61,359.37,202.61Z" style="fill:#6B84FF"></path><path d="M339.67,227s23.67,12.72,31.84,12.87a7.84,7.84,0,0,0,1.14-.08c6.81-1.29,15.25-7.21,32.22-26.65,5.94-6.81,7.17-10.63,6-12.42-1.52-2.24-6.88-1.25-11.56,1.1-6.83,3.43-24.21,11.27-25.59,10.66s-14.32-9.87-14.32-9.87Z" style="fill:#6B84FF"></path><path d="M363.56,207.38c-2.67,3.78-5.51,7.44-8.43,11-1.43,1.77-2.86,3.53-4.36,5.24s-3.22,3.46-4.77,5.25c-.07.08-.2,0-.13-.1,1.48-1.83,2.84-3.77,4.28-5.63s2.83-3.54,4.26-5.31c2.91-3.59,5.85-7.18,8.88-10.68A.17.17,0,0,1,363.56,207.38Z" style="fill:#263238"></path><path d="M387.17,246.77,386.54,260s15.58,1.71,54.11,1.71c0,0-8.13-41.12-21.17-56.43-6.52-7.66-14.54-7.42-19.84-2.45C398.3,204,385.88,224.86,384,232.57,382.28,239.36,387.17,246.77,387.17,246.77Z" style="fill:#6B84FF"></path><path d="M402.2,207.11,399,217q-1.59,5-3,10c-.88,3.34-2,6.7-1.32,10a25.06,25.06,0,0,0,3.71,9.45l.08.13v.14c-.12,2.32-.32,4.64-.47,7s-.38,4.64-.61,7q0-3.5,0-7c.06-2.33.07-4.66.17-7l.07.27a26.33,26.33,0,0,1-4-9.8,14.21,14.21,0,0,1,.14-5.36c.36-1.72.82-3.41,1.31-5.09,1-3.35,2.14-6.64,3.31-9.92S400.87,210.33,402.2,207.11Z" style="fill:#263238"></path><path d="M394.73,220.2a.85.85,0,0,0,.68,1,.79.79,0,0,0,.86-.74.87.87,0,0,0-.68-1A.79.79,0,0,0,394.73,220.2Z" style="fill:#263238"></path><path d="M391.66,229.88a.88.88,0,0,0,.68,1,.79.79,0,0,0,.87-.74.86.86,0,0,0-.68-1A.8.8,0,0,0,391.66,229.88Z" style="fill:#263238"></path><path d="M391.66,239.61a.86.86,0,0,0,.68,1,.79.79,0,0,0,.87-.74.85.85,0,0,0-.68-1A.78.78,0,0,0,391.66,239.61Z" style="fill:#263238"></path><path d="M394.73,247.52a.84.84,0,0,0,.68,1,.78.78,0,0,0,.86-.74.85.85,0,0,0-.68-1A.79.79,0,0,0,394.73,247.52Z" style="fill:#263238"></path><path d="M394.08,256.33a.85.85,0,0,0,.68,1,.79.79,0,0,0,.86-.74.85.85,0,0,0-.68-1A.77.77,0,0,0,394.08,256.33Z" style="fill:#263238"></path><path d="M391.93,215.25c-1.31,2.21-2.53,4.47-3.73,6.74.3-1.07.65-2.13,1-3.18,0-.08-.1-.13-.14-.05a14.68,14.68,0,0,0-1.26,4c-.39.74-.78,1.47-1.16,2.21-.74,1.49-1.5,3-2.09,4.51a15.54,15.54,0,0,0-1,4.86c0,.08.14.1.15,0a17.34,17.34,0,0,1,1.56-4.84c.67-1.53,1.42-3,2.15-4.53,1.57-3.21,3.12-6.43,4.59-9.68A0,0,0,0,0,391.93,215.25Z" style="fill:#263238"></path><path d="M420.41,207.39c8.44,14.61,23.34,44.65,18.35,53S405.7,274,396.1,275.74c-3.17.56-14.58-22-11.44-23.36,5.33-2.36,30.67-7,31.48-8.67.5-1.08-4.46-20.77-5.05-32.34C410.33,196.32,417.79,202.85,420.41,207.39Z" style="fill:#d3766a"></path><path d="M387.43,251.44s-10,1.39-16.44,2.6c-3.61.68-9.7,2.39-12.12,4.1-3.63,2.56-17.17,15.58-14.08,18.93,2.79,3,13-9.63,13-9.63s-11.43,11.87-7.4,14.9,13.67-12.8,13.67-12.8-11.47,12.45-6.82,14.92c3.52,1.87,13.06-12,13.06-12s-9.79,10.78-6.25,12.85c3.9,2.3,13.51-9.94,13.51-9.94,9.87,3.76,16.12,1.51,20.37-.61C399,274.25,387.43,251.44,387.43,251.44Z" style="fill:#d3766a"></path><path d="M361.48,263.08c-1.39,1.35-2.81,2.7-4.08,4.17s-2.49,3-3.61,4.55a32.87,32.87,0,0,0-3.81,6.55c2.1-4,6.57-9.3,7.84-10.77s2.46-3,3.72-4.45C361.57,263.09,361.52,263.05,361.48,263.08Z" style="fill:#263238"></path><path d="M366.86,267.57c-1.71,1.8-3.47,3.52-5.09,5.39s-3,3.77-4.48,5.73c-.12.16,0,.17.12,0,1.57-1.91,3.16-3.55,4.75-5.44s3.09-3.84,4.74-5.66C366.93,267.58,366.88,267.54,366.86,267.57Z" style="fill:#263238"></path><path d="M372.16,270.59a55.75,55.75,0,0,0-7.16,8.83c-.1.16.05.16.17,0,2.32-3,4.13-5.33,7.08-8.73C372.3,270.64,372.22,270.54,372.16,270.59Z" style="fill:#263238"></path><path d="M386.53,251l20.24,25s29.3-6.72,33.47-16.71-10-38.08-17.77-49.71-12.76-11.34-11.85,2c.82,11.93,5.24,31.12,4.78,31.77S386.53,251,386.53,251Z" style="fill:#6B84FF"></path><path d="M394.18,250.5c3.15,3.38,6.15,6.92,9.07,10.5,1.43,1.76,2.86,3.53,4.23,5.34s2.73,3.86,4.16,5.74c.07.09-.06.19-.12.11-1.49-1.82-3.11-3.55-4.63-5.34s-2.9-3.5-4.33-5.25c-2.93-3.59-5.84-7.2-8.64-10.88A.17.17,0,0,1,394.18,250.5Z" style="fill:#263238"></path><path d="M386.47,251c2.26-.18,29.13-7.07,29.16-7.08s-1.3-8.53-1.59-10.14c-.57-3.28-1.21-6.56-1.92-9.82,0-.07-.15-.07-.14,0,.16,2,.38,4,.64,5.94-.3-.85-.62-1.71-1-2.54,0-.08-.15,0-.13,0,.45,1.68,1,3.34,1.47,5,.07.43.11.87.18,1.31.27,1.65.56,3.3.88,4.93.15.81.77,3.94.92,4.78-3.57.7-26.44,6.61-28.52,7.41C386.36,250.83,386.39,251,386.47,251Z" style="fill:#263238"></path><path d="M440.2,259.43a8.45,8.45,0,0,1-1.41,2.15c-.08.07,0,.09.12,0a4,4,0,0,0,1.33-2.12C440.24,259.43,440.22,259.38,440.2,259.43Z" style="fill:#263238"></path><path d="M411.43,201.47c-.16,1-4.44,7.87-9,8-1.49,0-2.08-8.11-2.08-8.11l-.18-.59-2.52-8.29,9.41-7.1,1.37-.95s.54,2.31,1.19,5.2c0,.13.06.26.09.41s.08.31.11.47l.3,1.3c.07.34.14.66.2,1s.14.7.21,1A56.67,56.67,0,0,1,411.43,201.47Z" style="fill:#d3766a"></path><path d="M409.59,189.64a17.4,17.4,0,0,1-9.45,11.14l-2.52-8.29,9.41-7.1,1.37-.95S408.94,186.75,409.59,189.64Z" style="fill:#263238"></path><path d="M385.41,178.62c-1.9,15.08,6.92,17.91,10.17,18.32,2.95.37,13.05,1.24,16.5-13.56s-3-20.45-9.68-21.65S387.3,163.53,385.41,178.62Z" style="fill:#d3766a"></path><path d="M388.5,174.64c.36,0,.7-.06,1.06-.09a1.7,1.7,0,0,0,1.05-.3.54.54,0,0,0,.08-.66,1.33,1.33,0,0,0-1.28-.47,2,2,0,0,0-1.32.54A.58.58,0,0,0,388.5,174.64Z" style="fill:#263238"></path><path d="M398.5,176a7.83,7.83,0,0,1-1-.34,1.74,1.74,0,0,1-1-.54.54.54,0,0,1,.09-.66,1.31,1.31,0,0,1,1.35-.15,1.93,1.93,0,0,1,1.15.84A.58.58,0,0,1,398.5,176Z" style="fill:#263238"></path><path d="M395.75,179.55s.07.06.07.1c-.19,1-.22,2.23.66,2.71,0,0,0,.07,0,.06C395.35,182.09,395.41,180.49,395.75,179.55Z" style="fill:#263238"></path><path d="M396.83,178.61c1.67.11,1.32,3.46-.24,3.35S395.42,178.51,396.83,178.61Z" style="fill:#263238"></path><path d="M397.47,178.85c.27.22.52.59.87.66s.74-.23,1.05-.54c0,0,.05,0,.05,0-.06.65-.38,1.28-1.07,1.3s-1-.6-1.12-1.26C397.23,178.93,397.36,178.77,397.47,178.85Z" style="fill:#263238"></path><path d="M390,178.67s-.09,0-.09.08c-.07,1-.32,2.22-1.3,2.47a0,0,0,0,0,0,.06C389.82,181.23,390.14,179.66,390,178.67Z" style="fill:#263238"></path><path d="M389.22,177.49c-1.65-.29-2.12,3-.58,3.31S390.61,177.74,389.22,177.49Z" style="fill:#263238"></path><path d="M388.5,177.62c-.29.14-.6.42-.91.4s-.59-.43-.77-.8c0,0-.05,0-.06,0-.11.63,0,1.32.61,1.53s1-.3,1.26-.91C388.68,177.75,388.61,177.56,388.5,177.62Z" style="fill:#263238"></path><path d="M394.77,187.81c-.27.23-.53.55-.91.56a2.65,2.65,0,0,1-1.1-.33s-.07,0-.05.05a1.39,1.39,0,0,0,1.28.65,1.11,1.11,0,0,0,.87-.87A.06.06,0,0,0,394.77,187.81Z" style="fill:#263238"></path><path d="M390.89,183.56a22.48,22.48,0,0,0-.48,2.25c0,.07.16.12.41.17,0,0,0,0,0,0a3.51,3.51,0,0,0,3.52-.89c.06-.07,0-.15-.1-.12a5.21,5.21,0,0,1-3.26.53c0-.21.76-2.58.65-2.6a6.52,6.52,0,0,0-1.7.18c.73-3.19,2-6.23,2.66-9.42,0-.11-.14-.17-.18-.07a52.49,52.49,0,0,0-3.3,10C389,184,390.58,183.65,390.89,183.56Z" style="fill:#263238"></path><path d="M391,185.8a4.15,4.15,0,0,0,1.44,1.52,1.78,1.78,0,0,0,1.1.24c.84-.08,1-.82.92-1.48a4.59,4.59,0,0,0-.21-1A5.32,5.32,0,0,1,391,185.8Z" style="fill:#263238"></path><path d="M392.44,187.32a1.78,1.78,0,0,0,1.1.24c.84-.08,1-.82.92-1.48A1.92,1.92,0,0,0,392.44,187.32Z" style="fill:#ff9abb"></path><path d="M411.6,182.56c-2.84.43-3.71-6.06-3.71-6.06s-12.15-1.78-13.4-11.61a16.68,16.68,0,0,1-8.21,9.32s.18-10.81,8.69-13.11c0,0,10.54-4.11,16.71,4.19S413.5,182.28,411.6,182.56Z" style="fill:#263238"></path><path d="M394.43,164.17a10.59,10.59,0,0,0,.64,4.48,11.18,11.18,0,0,0,2.38,3.93,10.45,10.45,0,0,0,.83.8l.43.38c.15.12.31.23.47.34.32.21.63.44.95.64l1,.53.51.25.54.19,1.07.38c.74.19,1.48.34,2.22.48-.7-.29-1.42-.5-2.1-.79l-1-.47-.5-.23-.48-.28-.95-.57c-.3-.2-.59-.43-.88-.65l-.44-.33-.4-.37a8.11,8.11,0,0,1-.78-.77,12.87,12.87,0,0,1-2.39-3.65,14,14,0,0,1-.73-2.09A12.7,12.7,0,0,1,394.43,164.17Z" style="fill:#263238"></path><path d="M409.54,182.86s3.49-4.61,5.6-3.35-.65,8-3.22,8.89a2.56,2.56,0,0,1-3.38-1.52Z" style="fill:#d3766a"></path><path d="M414.3,181.44s.05.05,0,.06c-1.8.65-2.79,2.26-3.51,3.94a1.41,1.41,0,0,1,2.13-.31c.05,0,0,.1-.05.09a1.6,1.6,0,0,0-1.76.49,7.27,7.27,0,0,0-.88,1.37c-.09.16-.38.06-.31-.12l0,0C410,184.66,411.87,181.57,414.3,181.44Z" style="fill:#263238"></path><path d="M400.05,200.51l2.27,7,9-8,2.21,2.92s-9.19,13.09-9.2,12.47l-2.4-6.05-4.31,3.8,1-10.2Z" style="fill:#6B84FF"></path><path d="M397.86,207.54c.22-1.68.4-3.38.7-5,0-.06.11-.08.12,0,.23,1.65-.67,8.06-.77,9.61l0,0c.18-.16,4-3.32,4-3.27.55,1,2.31,5.38,2.42,5.77,1.46-2.08,7.58-10.25,9.26-12.2.05,0,.14,0,.1.07-1.31,2.21-9.23,13-9.33,13a64,64,0,0,1-2.51-6.39,45.13,45.13,0,0,1-4.52,4.05A51.34,51.34,0,0,1,397.86,207.54Z" style="fill:#263238"></path></g><g id="freepik--Plant--inject-19"><path d="M70,336.88a74.88,74.88,0,0,1,1.74-12.28,27.39,27.39,0,0,1,4.39-10.36,13.12,13.12,0,0,1,8.61-5.36c3.37-.42,6.53,1.08,9,3.21,3.12,2.63,5.52,6.11,7.76,9.48a115.37,115.37,0,0,1,6.7,11.74.11.11,0,0,1-.2.11,73,73,0,0,0-6-9.82,61.41,61.41,0,0,0-6.91-8.35c-2.31-2.26-5.25-4.37-8.6-4.48a10.56,10.56,0,0,0-8.42,4.33c-2.24,2.88-3.39,6.47-4.24,10a74.54,74.54,0,0,0-1.73,11.7c-.66,8.09-.84,16.24-1,24.35Q71,368,71,374.89c0,2.33,0,4.65,0,7a43.16,43.16,0,0,1-.27,6.73c-.08.45-.82.41-.89,0a39.94,39.94,0,0,1-.31-6.38q0-3.3-.08-6.62-.06-6.42-.05-12.86C69.35,354.11,69.45,345.47,70,336.88Z" style="fill:#263238"></path><path d="M81.6,330.78c.43-2.29,1.2-5.27,2.51-7,2.34-3.19,4.87-1.8,2.53,1.73a21.16,21.16,0,0,0-3.29,8.69s3.94,5.63,8.69,8.4c-.2-2.16-.81-5.49-.39-8.7.91-6.95,5.12-6.56,4.08-1a47.35,47.35,0,0,0-1,11.17,23.9,23.9,0,0,0,5.08,2.49c-.27-.81-.56-1.77-.88-3-1.69-6.23,2.46-8.17,2.6-4.67a48.79,48.79,0,0,0,1.61,8.84c2.28.77,4.17,1.29,5.33,1.7a19.5,19.5,0,0,1,7.79,5.32,24.26,24.26,0,0,0,5.31-6.87c-1.45-1.25-3.75-3.11-6.93-5.35-6-4.22-3.9-9.55.84-6.24,3.42,2.39,6.07,6.82,7.27,9.09a36.74,36.74,0,0,0,2.71-12.44c-4.69-4.4-16.3-10.54-12.8-10.54,3.15,0,10.19,4.62,12.78,6.4a34.84,34.84,0,0,0-.4-3.62c-4.42-2.9-18.78-7.4-16.49-8.7,2.51-1.42,12.53,3.22,15.56,4.69a18.17,18.17,0,0,0-2.65-5.5c-6.11-8.18-17.12-11-21.93-9.43-3.4,1.1-2.4,9.72-3.13,9.43C82.79,310.14,76.58,314,81.6,330.78Zm33.48-.94c1-1.17,5.45,2.27,4.15,4.15S113.83,331.34,115.08,329.84Zm-23.42-7.36c1.18.75-.56,5.11-2.38,3.79C87.73,325.14,90.47,321.72,91.66,322.48Z" style="fill:#6B84FF"></path><path d="M81.6,330.78c.43-2.29,1.2-5.27,2.51-7,2.34-3.19,4.87-1.8,2.53,1.73a21.16,21.16,0,0,0-3.29,8.69s3.94,5.63,8.69,8.4c-.2-2.16-.81-5.49-.39-8.7.91-6.95,5.12-6.56,4.08-1a47.35,47.35,0,0,0-1,11.17,23.9,23.9,0,0,0,5.08,2.49c-.27-.81-.56-1.77-.88-3-1.69-6.23,2.46-8.17,2.6-4.67a48.79,48.79,0,0,0,1.61,8.84c2.28.77,4.17,1.29,5.33,1.7a19.5,19.5,0,0,1,7.79,5.32,24.26,24.26,0,0,0,5.31-6.87c-1.45-1.25-3.75-3.11-6.93-5.35-6-4.22-3.9-9.55.84-6.24,3.42,2.39,6.07,6.82,7.27,9.09a36.74,36.74,0,0,0,2.71-12.44c-4.69-4.4-16.3-10.54-12.8-10.54,3.15,0,10.19,4.62,12.78,6.4a34.84,34.84,0,0,0-.4-3.62c-4.42-2.9-18.78-7.4-16.49-8.7,2.51-1.42,12.53,3.22,15.56,4.69a18.17,18.17,0,0,0-2.65-5.5c-6.11-8.18-17.12-11-21.93-9.43-3.4,1.1-2.4,9.72-3.13,9.43C82.79,310.14,76.58,314,81.6,330.78Zm33.48-.94c1-1.17,5.45,2.27,4.15,4.15S113.83,331.34,115.08,329.84Zm-23.42-7.36c1.18.75-.56,5.11-2.38,3.79C87.73,325.14,90.47,321.72,91.66,322.48Z" style="opacity:0.2"></path><path d="M93.45,323.82c.61-1.22,1.26-2.43,2-3.61a20.92,20.92,0,0,1,2.26-3.27l-.59-.72c-.08-.09.06-.23.15-.13l.66.79a.21.21,0,0,1,.1.11c.84,1,1.64,2.06,2.4,3.12a33.85,33.85,0,0,1,4,1.15c1.34.45,2.67.91,4,1.46.14.06.07.28-.06.22-1.29-.57-2.6-1.12-3.94-1.57s-2.55-.76-3.83-1.12c.41.59.82,1.18,1.22,1.78a47.93,47.93,0,0,1,7,2.86c2.37,1.13,4.65,2.44,6.92,3.75a.12.12,0,0,1-.12.2,74.6,74.6,0,0,0-6.88-3.56c-2.2-1-4.47-1.88-6.69-2.86,5.58,8.71,8.92,18.75,13.39,28.05.07.13-.14.24-.2.11-1.36-3.26-2.94-6.44-4.42-9.65-1.34-2.88-2.64-5.77-4-8.65q-.58-1.26-1.2-2.52c.25,4.65.15,9.37.91,14a.12.12,0,1,1-.23,0c-.32-5-1.2-9.85-1.16-14.85,0,0,0,0,0-.06-1-1.9-2-3.78-3-5.6-1.85,4.35-3.79,8.77-4.65,13.44,0,.14-.26.08-.22-.07,1.25-4.68,2.42-9.37,4.67-13.7a52.76,52.76,0,0,0-3.92-5.66c-.62,1.16-1.42,2.25-2.12,3.35s-1.37,2.17-2,3.28a47.25,47.25,0,0,0-3.49,7.37c0,.15-.28.07-.22-.06C91.15,328.71,92.23,326.22,93.45,323.82Z" style="fill:#263238"></path><path d="M49.48,334.4c3.58-3.59,7.74-8.3,13.27-8.29,5.34,0,9.27,4.31,11.53,8.74,2.36,4.64,3.21,9.89,3.87,15a183.65,183.65,0,0,1,1.42,18.44c.1,3.42.08,6.85,0,10.27a67.84,67.84,0,0,1-.79,10.37c-.1.55-1,.57-1,0-.16-2.89,0-5.78,0-8.67s0-5.68-.13-8.52c-.21-5.74-.63-11.48-1.3-17.19-.59-5-1.06-10.11-2.55-14.92-1.35-4.35-3.87-9.32-8.27-11.23-6-2.6-11.88,2.16-15.82,6.18C49.56,334.65,49.38,334.5,49.48,334.4Z" style="fill:#263238"></path><path d="M31.23,342.42h0c0,.73.07,1.46.12,2.16a13,13,0,0,1,5.86-2.43c5.08-.54,4.76,3.33,1.36,3.49a19.37,19.37,0,0,0-7,1.39c.83,6.71,2.68,12.1,2.95,12.18A98.38,98.38,0,0,0,48,357.52c-1.26-2.69-4.13-6.27-2.67-6.56s3.07,2.9,3.88,6.32a64,64,0,0,0,9.76-2.69c-2.23-1.93-5.68-4.34-4.36-5.37s4.06,2.37,5.7,4.83a20.11,20.11,0,0,0,4.22-2.35c-3-4.43-10.35-5.33-9.39-8.52s7.82,1.23,10.9,7.15c3.62-3.75,4.68-9.06,4.3-13.6-3.15-.37-9.22.3-8.78-2s4.82-1.83,8.41-.51a12.67,12.67,0,0,0-2.1-5c-3.33-4.26-13.47,1.16-13.47,1.16s1.09-10.19-2.78-11.95c-2.23-1-6.16-1-10.11,1.32,2.22.18,4.89.88,6,2.42,1.38,2-.79,3-2.17,2.12-1-.64-2.78-2.66-6.06-2.92a20,20,0,0,0-3.66,4c-.37.52-.72,1.08-1.07,1.68a13.94,13.94,0,0,1,11.87.22c4.4,2.18,1.94,6.75-1.84,5s-7.38-3.52-11.39-2.51a28.43,28.43,0,0,0-1.93,11.36,19.84,19.84,0,0,1,6.51-3.12c4.37-1.15,5.69,1.46.89,1.95A19.21,19.21,0,0,0,31.23,342.42Zm5.31-7c-.3-1.41,2.8-1.82,3.32-.67C40.29,335.71,36.84,336.82,36.54,335.4Zm26.52,7.84c.29-.77,2.37.11,2.18,1.07C65,345.6,62.78,344,63.06,343.24Zm-14.64,5c1.51-.6,3.87,3.15,2.23,4S47.19,348.71,48.42,348.21Z" style="fill:#6B84FF"></path><path d="M31.23,342.42h0c0,.73.07,1.46.12,2.16a13,13,0,0,1,5.86-2.43c5.08-.54,4.76,3.33,1.36,3.49a19.37,19.37,0,0,0-7,1.39c.83,6.71,2.68,12.1,2.95,12.18A98.38,98.38,0,0,0,48,357.52c-1.26-2.69-4.13-6.27-2.67-6.56s3.07,2.9,3.88,6.32a64,64,0,0,0,9.76-2.69c-2.23-1.93-5.68-4.34-4.36-5.37s4.06,2.37,5.7,4.83a20.11,20.11,0,0,0,4.22-2.35c-3-4.43-10.35-5.33-9.39-8.52s7.82,1.23,10.9,7.15c3.62-3.75,4.68-9.06,4.3-13.6-3.15-.37-9.22.3-8.78-2s4.82-1.83,8.41-.51a12.67,12.67,0,0,0-2.1-5c-3.33-4.26-13.47,1.16-13.47,1.16s1.09-10.19-2.78-11.95c-2.23-1-6.16-1-10.11,1.32,2.22.18,4.89.88,6,2.42,1.38,2-.79,3-2.17,2.12-1-.64-2.78-2.66-6.06-2.92a20,20,0,0,0-3.66,4c-.37.52-.72,1.08-1.07,1.68a13.94,13.94,0,0,1,11.87.22c4.4,2.18,1.94,6.75-1.84,5s-7.38-3.52-11.39-2.51a28.43,28.43,0,0,0-1.93,11.36,19.84,19.84,0,0,1,6.51-3.12c4.37-1.15,5.69,1.46.89,1.95A19.21,19.21,0,0,0,31.23,342.42Zm5.31-7c-.3-1.41,2.8-1.82,3.32-.67C40.29,335.71,36.84,336.82,36.54,335.4Zm26.52,7.84c.29-.77,2.37.11,2.18,1.07C65,345.6,62.78,344,63.06,343.24Zm-14.64,5c1.51-.6,3.87,3.15,2.23,4S47.19,348.71,48.42,348.21Z" style="opacity:0.2"></path><path d="M35.15,358.44c2.27-3.81,4.52-7.63,6.92-11.37,1.11-1.74,2.28-3.45,3.49-5.12-.18,0-.37-.1-.54-.13l-.91-.18c-.7-.12-1.41-.22-2.11-.29s-1.33-.1-2-.11a9.55,9.55,0,0,0-2.14.11c-.09,0-.1-.12,0-.11.71,0,1.44-.07,2.16-.08s1.38,0,2.07,0,1.3.1,1.94.2l1.06.19c.21,0,.43.07.64.13,1.23-1.69,2.51-3.36,3.84-5a45.38,45.38,0,0,0-12.47-4c-.07,0,0-.13,0-.12a42.41,42.41,0,0,1,12.65,3.84L52,333.82c.83-1,1.71-2,2.45-3,.05-.07.15,0,.1.07a41.26,41.26,0,0,0-2.89,3.54h0a44.6,44.6,0,0,1,4.63,3.72q2.28,2,4.43,4.16c.06.05,0,.14-.08.09-1.42-1.42-2.89-2.76-4.43-4s-3.16-2.46-4.7-3.72l0,0c-.35.46-.7.93-1.06,1.39l-.53.7,0,.05-1.77,2.32a18.25,18.25,0,0,1,1.76,3.18c.51,1.07,1,2.18,1.36,3.3a47.42,47.42,0,0,1,1.9,7.13c0,.08-.09.11-.11,0a41.66,41.66,0,0,0-2.07-7c-.44-1.16-.95-2.3-1.47-3.43s-1-2-1.49-3.06c-.51.68-1,1.36-1.52,2l-.42.6a.08.08,0,0,1,0,.11h0c-1.56,2.19-3.05,4.43-4.5,6.69a1.94,1.94,0,0,1,.2.49c.09.28.18.55.26.83.16.56.29,1.13.4,1.7s.17,1.08.22,1.62a15.93,15.93,0,0,0,.14,1.84c0,.1-.13.1-.11,0a5.86,5.86,0,0,0-.13-1.72,17.59,17.59,0,0,0-.33-1.76c-.12-.52-.26-1-.41-1.55-.08-.26-.17-.52-.25-.77s-.12-.28-.16-.42c-.68,1.06-1.35,2.13-2,3.2l-3.92,6.4C35.25,358.65,35.08,358.55,35.15,358.44Z" style="fill:#263238"></path><path d="M70.27,387.69c.06-2.16.4-4.33.64-6.48s.48-4.31.71-6.47a98.93,98.93,0,0,1,1.66-12.48,18.24,18.24,0,0,1,5.08-9.33,8.34,8.34,0,0,1,5-2.38,8.66,8.66,0,0,1,5.29,1.63,18.35,18.35,0,0,1,4.44,4.69,44.57,44.57,0,0,1,3.47,5.63c0,.07-.08.12-.12.05a28.86,28.86,0,0,0-7.5-8.41,8.9,8.9,0,0,0-4.73-2A6.42,6.42,0,0,0,79.61,354a17.23,17.23,0,0,0-4.84,8.57,87.67,87.67,0,0,0-1.88,11.53c-.3,2.28-.59,4.57-.89,6.85s-.49,4.6-1,6.84A.38.38,0,0,1,70.27,387.69Z" style="fill:#263238"></path><path d="M80.89,370.93a11.78,11.78,0,0,0,2.35,2.39c-.36-2.1-.79-5.84.28-7.84,1.65-3.09,3.6-1.55,2.62,1.14a21.69,21.69,0,0,0-1.59,7.63,32.87,32.87,0,0,0,7.17,3.38,12,12,0,0,1-.24-3.69c.33-3.31,2.86-3.24,2.21.2a21.2,21.2,0,0,0-.35,4,74.83,74.83,0,0,0,11.17,2.52,33,33,0,0,0,4.63-8.23c-2.7-.68-8.15-.83-8-2.76.15-2.59,5.44-.59,8.52,1.29a20.76,20.76,0,0,0,.94-7,34.22,34.22,0,0,0-7.43-1.23c-5.54-.48-5.27-3.62-1.25-3.55,3,.05,6.71,1.87,8.49,2.81-1.16-7.54-6.91-12.37-11.52-12.56-7.76-.31-5,9.34-5,9.34s-5.25-3.7-10.21-3.6S75.59,363.55,80.89,370.93ZM101.6,357c-.17-1.09,3.29-1.35,3.47,0C105.27,358.59,101.78,358.08,101.6,357Zm5.57,11.32c-.07-.71,1.42-.84,1.76.06C109.15,368.94,107.23,369,107.17,368.3ZM88.55,369c1.17.16,1.83,4.34-.18,4.26C86.84,373.15,87.56,368.82,88.55,369Z" style="fill:#6B84FF"></path><path d="M80.89,370.93a11.78,11.78,0,0,0,2.35,2.39c-.36-2.1-.79-5.84.28-7.84,1.65-3.09,3.6-1.55,2.62,1.14a21.69,21.69,0,0,0-1.59,7.63,32.87,32.87,0,0,0,7.17,3.38,12,12,0,0,1-.24-3.69c.33-3.31,2.86-3.24,2.21.2a21.2,21.2,0,0,0-.35,4,74.83,74.83,0,0,0,11.17,2.52,33,33,0,0,0,4.63-8.23c-2.7-.68-8.15-.83-8-2.76.15-2.59,5.44-.59,8.52,1.29a20.76,20.76,0,0,0,.94-7,34.22,34.22,0,0,0-7.43-1.23c-5.54-.48-5.27-3.62-1.25-3.55,3,.05,6.71,1.87,8.49,2.81-1.16-7.54-6.91-12.37-11.52-12.56-7.76-.31-5,9.34-5,9.34s-5.25-3.7-10.21-3.6S75.59,363.55,80.89,370.93ZM101.6,357c-.17-1.09,3.29-1.35,3.47,0C105.27,358.59,101.78,358.08,101.6,357Zm5.57,11.32c-.07-.71,1.42-.84,1.76.06C109.15,368.94,107.23,369,107.17,368.3ZM88.55,369c1.17.16,1.83,4.34-.18,4.26C86.84,373.15,87.56,368.82,88.55,369Z" style="opacity:0.2"></path><path d="M90.17,373.6c.19-.52.36-1.05.52-1.58-.15.54-.28,1.08-.38,1.62A.07.07,0,1,1,90.17,373.6Z" style="fill:#263238"></path><path d="M92.21,366.88c.37-1.07.77-2.13,1.19-3.18.22-.56.45-1.12.7-1.67a7.28,7.28,0,0,1,.69-1.4,10.3,10.3,0,0,1-.63-1.35s0-.08.07,0a16.39,16.39,0,0,1,1.51,2.34c.22.37.42.74.64,1.11a9.74,9.74,0,0,1,1.3.2c.46.08.93.18,1.39.28l1.38.32c.46.11.91.26,1.38.34.1,0,.06.18,0,.14a9.1,9.1,0,0,0-1.45-.38L99,363.35c-.45-.06-.9-.12-1.35-.16s-.68-.05-1-.09c.19.33.38.65.56,1l.08.16a3.86,3.86,0,0,1,1.12.13c.4.07.8.14,1.19.23.81.18,1.62.37,2.42.6,1.67.46,3.33,1,5,1.54.09,0,0,.17-.06.14a48.27,48.27,0,0,0-5-1.39L99.51,365l-1.19-.25a7.36,7.36,0,0,1-.93-.21c.86,1.58,1.66,3.18,2.4,4.82,1.61,3.55,3,7.22,4.34,10.87,0,.09-.11.15-.14.06a100.09,100.09,0,0,0-4.62-10.63l-.94-1.89c0,.13-.06.26-.08.39-.08.43-.16.86-.23,1.29-.15.87-.29,1.73-.42,2.6a30.61,30.61,0,0,0-.63,5.39c0,.11-.16.1-.15,0,.14-.86.14-1.76.2-2.63s.12-1.81.22-2.72.22-1.74.36-2.6c.07-.43.15-.87.23-1.3a2.72,2.72,0,0,1,.24-.94c-.45-.91-.9-1.82-1.36-2.73s-.87-1.7-1.31-2.55l-.59-1.08a9.15,9.15,0,0,1-.52,1.31c-.19.49-.39,1-.59,1.46-.45,1.08-.86,2.18-1.28,3.27-.58,1.55-1.23,3.14-1.71,4.75C91.28,370.06,91.68,368.45,92.21,366.88Z" style="fill:#263238"></path><path d="M90.69,372l.12-.38Z" style="fill:#263238"></path><polygon points="57.31 383.49 57.85 395.03 59.26 424.78 89.95 424.78 91.35 395.03 91.9 383.49 57.31 383.49" style="fill:#37474f"></polygon><polygon points="57.31 383.49 57.85 395.03 91.35 395.03 91.9 383.49 57.31 383.49" style="fill:#263238"></polygon><rect x="55.13" y="378.82" width="38.95" height="9.33" transform="translate(149.21 766.98) rotate(180)" style="fill:#37474f"></rect><rect x="82.08" y="424.78" width="5.39" height="4.89" style="fill:#37474f"></rect><rect x="82.08" y="424.78" width="5.39" height="2.44" style="fill:#263238"></rect><rect x="61.74" y="424.78" width="5.38" height="4.89" style="fill:#37474f"></rect><rect x="61.74" y="424.78" width="5.38" height="2.44" style="fill:#263238"></rect></g><g id="freepik--speech-bubble--inject-19"><path d="M373.84,165.23a12.18,12.18,0,0,0,2.07-6.72c0-8.5-9.33-15.39-20.84-15.39s-20.84,6.89-20.84,15.39,9.32,15.4,20.84,15.4a25.06,25.06,0,0,0,14.38-4.26l7.18,1.83Z" style="fill:#fffefd"></path><path d="M373.84,165.23a12.46,12.46,0,0,0,2-6.36,11.9,11.9,0,0,0-1.77-6.34,18.81,18.81,0,0,0-10.52-7.71,27.56,27.56,0,0,0-13.16-.84,21.83,21.83,0,0,0-11.7,5.75,13.57,13.57,0,0,0-3.4,5.49,11,11,0,0,0-.09,6.39,13.53,13.53,0,0,0,3.32,5.54,19.49,19.49,0,0,0,5.34,3.83,24.09,24.09,0,0,0,6.3,2.05,27.85,27.85,0,0,0,6.64.47,24.44,24.44,0,0,0,12.56-4l.09-.06.1,0,7.16,1.93-.14.17Zm0,0,2.9,6.2.1.22-.24-.06-7.21-1.72.19,0a24.85,24.85,0,0,1-12.79,4.38,26.91,26.91,0,0,1-13.36-2.45,20.11,20.11,0,0,1-5.62-4,14.28,14.28,0,0,1-3.58-5.93,11.89,11.89,0,0,1,.06-6.94,14.4,14.4,0,0,1,3.67-5.87,22.65,22.65,0,0,1,12.23-5.95,27.45,27.45,0,0,1,13.54,1,22.11,22.11,0,0,1,6.07,3.12,16.42,16.42,0,0,1,4.6,5,11.88,11.88,0,0,1-.56,12.92Z" style="fill:#263238"></path><path d="M347.57,158.51a2.16,2.16,0,1,1-2.16-2.16A2.16,2.16,0,0,1,347.57,158.51Z" style="fill:#263238"></path><path d="M357.23,158.51a2.16,2.16,0,1,1-2.16-2.16A2.16,2.16,0,0,1,357.23,158.51Z" style="fill:#263238"></path><path d="M366.89,158.51a2.16,2.16,0,1,1-2.16-2.16A2.16,2.16,0,0,1,366.89,158.51Z" style="fill:#263238"></path></g></svg>